<svg xmlns="http://www.w3.org/2000/svg" xmlns:xlink="http://www.w3.org/1999/xlink" width="130" height="130" viewBox="0 0 130 130">
  <defs>
    <linearGradient id="linear-gradient" x1="17.8945" y1="54.4718" x2="114.6323" y2="54.4718" gradientUnits="userSpaceOnUse">
      <stop offset="0" stop-color="#2d3d54"/>
      <stop offset="0.0552" stop-color="#29384f"/>
      <stop offset="0.2781" stop-color="#1d2a41"/>
      <stop offset="0.5491" stop-color="#162239"/>
      <stop offset="1" stop-color="#141f36"/>
    </linearGradient>
    <linearGradient id="linear-gradient-2" x1="-10057.8977" y1="63.8359" x2="-10046.3729" y2="52.3112" gradientTransform="matrix(-1, 0, 0, 1, -10012.577, 0)" gradientUnits="userSpaceOnUse">
      <stop offset="0" stop-color="#364254"/>
      <stop offset="1" stop-color="#577290"/>
    </linearGradient>
    <linearGradient id="linear-gradient-3" x1="825.39" y1="63.5164" x2="836.2085" y2="52.6978" gradientTransform="translate(-737.4678)" gradientUnits="userSpaceOnUse">
      <stop offset="0" stop-color="#141f36"/>
      <stop offset="1" stop-color="#2d3d54"/>
    </linearGradient>
    <linearGradient id="linear-gradient-4" x1="-9096.935" y1="116.7187" x2="-9041.2734" y2="61.0571" gradientTransform="matrix(-1, 0, 0, 1, -9002.7264, 0)" gradientUnits="userSpaceOnUse">
      <stop offset="0" stop-color="#141f36"/>
      <stop offset="0.4509" stop-color="#162239"/>
      <stop offset="0.7219" stop-color="#1d2a41"/>
      <stop offset="0.9448" stop-color="#29384f"/>
      <stop offset="1" stop-color="#2d3d54"/>
    </linearGradient>
    <linearGradient id="linear-gradient-5" x1="-9092.731" y1="77.323" x2="-9045.0015" y2="29.5936" gradientTransform="matrix(-1, 0, 0, 1, -9002.7264, 0)" xlink:href="#linear-gradient-2"/>
    <linearGradient id="linear-gradient-6" x1="66.2633" y1="62.4073" x2="66.2633" y2="18.8936" gradientTransform="matrix(1, 0, 0, 1, 0, 0)" xlink:href="#linear-gradient-2"/>
    <linearGradient id="linear-gradient-7" x1="38.5299" y1="62.8231" x2="38.5299" y2="50.2262" gradientTransform="matrix(1, 0, 0, 1, 0, 0)" xlink:href="#linear-gradient-2"/>
    <linearGradient id="linear-gradient-8" x1="109.9157" y1="568.4916" x2="126.115" y2="568.4916" gradientTransform="translate(-121.7145 -505.0876) rotate(-5.8695)" xlink:href="#linear-gradient"/>
    <linearGradient id="linear-gradient-9" x1="-9905.3842" y1="-480.5427" x2="-9889.185" y2="-480.5427" gradientTransform="matrix(-0.9944, -0.1058, -0.1058, 0.9944, -9813.8488, -521.3631)" xlink:href="#linear-gradient-4"/>
    <linearGradient id="linear-gradient-10" x1="35.7626" y1="121.9858" x2="97.7551" y2="59.9934" gradientTransform="matrix(1, 0, 0, 1, 0, 0)" xlink:href="#linear-gradient-2"/>
    <linearGradient id="linear-gradient-11" x1="38.627" y1="53.6712" x2="45.5265" y2="53.6712" xlink:href="#linear-gradient"/>
    <linearGradient id="linear-gradient-12" x1="-10946.6427" y1="53.6712" x2="-10939.7432" y2="53.6712" gradientTransform="matrix(-1, 0, 0, 1, -10853.1621, 0)" xlink:href="#linear-gradient"/>
    <linearGradient id="linear-gradient-13" x1="50.2799" y1="38.4644" x2="88.9995" y2="38.4644" xlink:href="#linear-gradient"/>
    <linearGradient id="linear-gradient-14" x1="19.5122" y1="25.9737" x2="113.0147" y2="25.9737" xlink:href="#linear-gradient"/>
    <linearGradient id="linear-gradient-15" x1="61.2334" y1="68.302" x2="71.3855" y2="58.1499" gradientTransform="matrix(1, 0, 0, 1, 0, 0)" xlink:href="#linear-gradient-2"/>
    <linearGradient id="linear-gradient-16" x1="50.8523" y1="95.9613" x2="81.6746" y2="95.9613" gradientTransform="matrix(1, 0, 0, 1, 0, 0)" xlink:href="#linear-gradient-4"/>
  </defs>
  <g id="Camada_2" data-name="Camada 2">
    <g id="Layer">
      <rect width="130" height="130" fill="none"/>
      <g>
        <g>
          <path d="M19.6769,49.2562C14.704,57.9777,17.1934,82.97,66.4282,82.97S117.313,58.9081,113.18,49.2562s-27.8089-23.2825-46.04-23.2825S23.651,42.2864,19.6769,49.2562Z" stroke="#141f36" stroke-linecap="round" stroke-linejoin="round" fill="url(#linear-gradient)"/>
          <g>
            <path d="M40.8321,67.516c-1.2061,0-2.7022-1.0439-4.1055-2.8633-2.1719-2.8164-3.9395-7.2734-2.9922-10.8818.877-3.3438,2.833-4.0459,4.3184-4.0459a8.2066,8.2066,0,0,1,4.1416,1.4326.5033.5033,0,0,1,.1972.291c.0977.4063,2.3711,9.9922.3868,14.6211a2.0612,2.0612,0,0,1-1.9463,1.4463Z" fill="url(#linear-gradient-2)"/>
            <path d="M38.0535,50.225a7.7615,7.7615,0,0,1,3.8523,1.34s2.355,9.7779.4126,14.3065a1.6,1.6,0,0,1-1.4868,1.1435c-2.9251,0-8.0335-7.71-6.6138-13.118.7522-2.8656,2.3145-3.6725,3.8357-3.6725m0-1c-1.6621,0-3.8442.7666-4.803,4.4186-.9905,3.7736.834,8.4028,3.0818,11.3165.88,1.1411,2.6353,3.0554,4.4993,3.0554a2.5543,2.5543,0,0,0,2.4057-1.7494c2.05-4.7789-.26-14.5223-.3593-14.9347a1,1,0,0,0-.3941-.5819,8.7541,8.7541,0,0,0-4.43-1.5245Z" fill="#141f36"/>
          </g>
          <g>
            <g>
              <path d="M92.1387,66.97a2.0012,2.0012,0,0,1-1.85-1.3721c-1.86-4.3369.2686-13.31.3594-13.69a.5033.5033,0,0,1,.1972-.291,7.71,7.71,0,0,1,3.8916-1.3457c1.4,0,3.2432.66,4.0684,3.8066.8887,3.3848-.7676,7.5645-2.8037,10.2041C94.6836,65.99,93.2764,66.97,92.1387,66.97Z" fill="url(#linear-gradient-3)"/>
              <path d="M94.7364,50.7711c1.4223,0,2.8828.754,3.5861,3.4336C99.65,59.2612,94.8738,66.47,92.139,66.47a1.4963,1.4963,0,0,1-1.39-1.0693c-1.8159-4.234.3858-13.376.3858-13.376a7.2614,7.2614,0,0,1,3.6018-1.2532m.0007-1h0a8.2574,8.2574,0,0,0-4.18,1.4372,1,1,0,0,0-.3943.5819c-.093.3864-2.2573,9.5165-.3325,14.0043A2.45,2.45,0,0,0,92.139,67.47c1.77,0,3.4277-1.8057,4.258-2.8819,2.1113-2.7369,3.8245-7.0873,2.8928-10.6368-.9546-3.6368-3.2622-4.18-4.5527-4.18Z" fill="#141f36"/>
            </g>
            <path d="M94.3706,57.6092s1.1055,2.3372-.4946,3.6855" fill="none" stroke="#141f36" stroke-linecap="round" stroke-linejoin="round" stroke-width="0.5"/>
          </g>
          <path d="M87.7949,68.6588c9.7977,0,26.8016,7.3383,28.0263,17.2952,1.2777,10.3883-16.2035,31.2969-49.44,42.0258h0c-31.2018-10.072-49.6578-30.0259-49.7482-40.0869-.0983-10.9284,17.7126-19.2341,28.1362-19.2341Z" stroke="#141f36" stroke-linecap="round" stroke-linejoin="round" fill="url(#linear-gradient-4)"/>
          <g>
            <path d="M66.4864,92.6586a10.0957,10.0957,0,0,1-4.3409-.9756L55.1885,88.4A25.63,25.63,0,0,1,41.4307,71.7474l-.1934-.9375A101.8166,101.8166,0,0,1,39.168,50.4047V42.5834a22.3211,22.3211,0,0,1,8.501-18.1592A29.946,29.946,0,0,1,66.2637,18.393a29.946,29.946,0,0,1,18.5947,6.0312,22.3209,22.3209,0,0,1,8.501,18.1592v5.82A101.5768,101.5768,0,0,1,90.417,72.6732,25.6031,25.6031,0,0,1,78.335,87.5765l-6.94,3.8165A10.21,10.21,0,0,1,66.4864,92.6586Z" fill="url(#linear-gradient-5)"/>
            <path d="M66.2635,18.8933c13.2981,0,26.5959,7.8967,26.5959,23.69v5.82a100.9915,100.9915,0,0,1-2.9282,24.1508A25.204,25.204,0,0,1,78.0935,87.1378l-6.94,3.8171a9.6494,9.6494,0,0,1-8.7946.2756l-6.9568-3.2833A25.1825,25.1825,0,0,1,41.9143,71.6185l-.1865-.9095a101.0313,101.0313,0,0,1-2.06-20.3048V42.5835c0-15.7935,13.2979-23.69,26.596-23.69m0-1a30.452,30.452,0,0,0-18.9056,6.1386,22.8063,22.8063,0,0,0-8.69,18.5516v7.8207A102.2233,102.2233,0,0,0,40.7483,70.91l.1863.9094c.0042.0193.0086.0385.0137.0574A26.1243,26.1243,0,0,0,54.9756,88.8516l6.9568,3.2832a10.5893,10.5893,0,0,0,4.554,1.0233,10.716,10.716,0,0,0,5.1494-1.327l6.94-3.8171a26.0759,26.0759,0,0,0,12.31-15.16c.0063-.02.012-.04.0168-.06a102.0689,102.0689,0,0,0,2.9573-24.39v-5.82a22.8063,22.8063,0,0,0-8.69-18.5516,30.4515,30.4515,0,0,0-18.9055-6.1386Z" fill="#141f36"/>
          </g>
          <path d="M39.6682,70.709s-14.8808,1.9684-20.95,13.3581c-4.5461,8.531,9.51,19.9625,9.51,19.9625" fill="none" stroke="#fff" stroke-linecap="round" stroke-linejoin="round" stroke-width="0.5"/>
          <path d="M44.3729,116.4848s4.3649,3.6249,21.8865,10.2887" fill="none" stroke="#fff" stroke-linecap="round" stroke-linejoin="round" stroke-width="0.5"/>
          <path d="M92.8583,47.5857v7.0427q0,3.6624-.1825,7.3125c-20.4452-6.9935-44.6086-1.7421-52.9064.4664-.071-1.7791-.1012-3.5583-.1012-5.35v-9.472C39.6682,9.33,92.8583,9.33,92.8583,47.5857Z" fill="url(#linear-gradient-6)"/>
          <path d="M43.0785,61.3643c-2.6991.4825-5.0538.9879-6.9834,1.4588-1.5738-2.6534-2.6189-6.0993-1.8724-8.9248,1.7229-6.5586,7.6959-2.3317,7.6959-2.3317A45.506,45.506,0,0,1,43.0785,61.3643Z" fill="url(#linear-gradient-7)"/>
          <path d="M62.11,49.8079l-.3254-3.1649a94.2487,94.2487,0,0,0-16.258.2588l.2345,2.2814A93.0285,93.0285,0,0,1,62.11,49.8079Z" stroke="#141f36" stroke-linecap="round" stroke-linejoin="round" fill="url(#linear-gradient-8)"/>
          <path d="M70.4063,49.778l.3368-3.1637A94.2535,94.2535,0,0,1,87,46.9317l-.2428,2.28A93.0282,93.0282,0,0,0,70.4063,49.778Z" stroke="#141f36" stroke-linecap="round" stroke-linejoin="round" fill="url(#linear-gradient-9)"/>
          <path d="M21.6448,74.48h89.2377c1.8585,0,3.2459,1.4438,2.8623,2.9788l-9.6832,38.7548a2.8536,2.8536,0,0,1-2.8623,1.96H33.309a2.88,2.88,0,0,1-2.8353-1.8612L18.81,77.5569C18.34,75.9962,19.737,74.48,21.6448,74.48Z" stroke="#141f36" stroke-linecap="round" stroke-linejoin="round" fill="url(#linear-gradient-10)"/>
          <path d="M41.7278,70.709l3.7987-1.4958a66.3825,66.3825,0,0,1-3.033-18.4421V45.3265l3.033-2.0073V36.6335l-6.878.8646S38.1707,60.161,41.7278,70.709Z" stroke="#141f36" stroke-linecap="round" stroke-linejoin="round" fill="url(#linear-gradient-11)"/>
          <path d="M90.38,70.709l-3.7987-1.4958a66.38,66.38,0,0,0,3.0329-18.4421V45.3265l-3.0329-2.0073V36.6335l6.878.8646S93.937,60.161,90.38,70.709Z" stroke="#141f36" stroke-linecap="round" stroke-linejoin="round" fill="url(#linear-gradient-12)"/>
          <path d="M51.5338,38.0488s4.504,3.4589,16.2133,5.0928l-1.4837-2.5464s1.5288,1.9953,12.44,3.3633V41.0037l6.1994,2.9548s4.357-2.9407,4.0847-7.325S42.1281,30.7776,51.5338,38.0488Z" stroke="#141f36" stroke-linecap="round" stroke-linejoin="round" fill="url(#linear-gradient-13)"/>
          <g>
            <path d="M19.5122,49.2562C30.5734,21.0733,60.52,2.6912,67.2268,2.6912s37.9693,21.1332,45.7879,46.565c0,0-21.9314-12.809-45.8909-12.809S19.5122,49.2562,19.5122,49.2562Z" stroke="#141f36" stroke-linecap="round" stroke-linejoin="round" fill="url(#linear-gradient-14)"/>
            <path d="M63.5771,3.5858S57.4982,16.887,57.4982,36.6335" fill="none" stroke="#141f36" stroke-linecap="round" stroke-linejoin="round"/>
            <path d="M70.5513,3.5858S76.63,16.887,76.63,36.6335" fill="none" stroke="#141f36" stroke-linecap="round" stroke-linejoin="round"/>
          </g>
          <path d="M22.8042,47.619s-5.54,15.88,7.1087,24.8648" fill="none" stroke="#141f36" stroke-linecap="round" stroke-linejoin="round" stroke-width="0.5"/>
          <path d="M26.88,45.7859S24.3258,60.5625,32.9572,70.709" fill="none" stroke="#141f36" stroke-linecap="round" stroke-linejoin="round" stroke-width="0.5"/>
          <path d="M32.6112,43.4842S31.51,58.1989,36.93,69.392" fill="none" stroke="#141f36" stroke-linecap="round" stroke-linejoin="round" stroke-width="0.5"/>
          <path d="M40.1663,42.3156S39.5015,57.527,42.4935,69.392" fill="none" stroke="#fff" stroke-linecap="round" stroke-linejoin="round" stroke-width="0.5"/>
          <path d="M37.7818,51.4487c-3.8381.4015-4.641,8.8321,1.2805,13.85" fill="none" stroke="#fff" stroke-linecap="round" stroke-linejoin="round" stroke-width="0.5"/>
          <path d="M20.5953,49.8079s-6.2226,11.9958,7.1258,22.6759" fill="none" stroke="#fff" stroke-linecap="round" stroke-linejoin="round" stroke-width="0.5"/>
          <path d="M60.973,6.2848S36.5751,16.9771,21.9611,46.4072c0,0,21.8789-13.4369,54.6611-10.9118" fill="none" stroke="#fff" stroke-linecap="round" stroke-linejoin="round" stroke-width="0.5"/>
          <path d="M65.8728,76.038H21.4957A1.1952,1.1952,0,0,0,20.35,77.5743l11.5862,38.9105" fill="none" stroke="#fff" stroke-linecap="round" stroke-linejoin="round" stroke-width="0.5"/>
          <line x1="46.2885" y1="47.2777" x2="46.2885" y2="48.6159" fill="none" stroke="#fff" stroke-linecap="round" stroke-linejoin="round" stroke-width="0.5"/>
          <path d="M54.7191,38.4644s3.2343,1.7878,11.1537,3.26" fill="none" stroke="#fff" stroke-linecap="round" stroke-linejoin="round" stroke-width="0.5"/>
          <path d="M66.3554,54.4344h0A3.849,3.849,0,0,1,69.8883,57.73l1.5438,7.1107c.6081,2.8006-1.1387,5.54-3.5328,5.54H64.6279c-2.4381,0-4.1918-2.8338-3.5045-5.6629l1.7275-7.1106A3.8212,3.8212,0,0,1,66.3554,54.4344Z" stroke="#141f36" stroke-linecap="round" stroke-linejoin="round" fill="url(#linear-gradient-15)"/>
          <path d="M65.2522,69.2618c-2.0961,0-3.6038-2.4363-3.0129-4.8685L63.7244,58.28a3.2851,3.2851,0,0,1,3.0129-2.7273h0" fill="none" stroke="#fff" stroke-linecap="round" stroke-linejoin="round" stroke-width="0.5"/>
          <path d="M38.4447,57.5388s-1.1824,2.5.529,3.942" fill="none" stroke="#141f36" stroke-linecap="round" stroke-linejoin="round" stroke-width="0.5"/>
          <line x1="33.9736" y1="115.5938" x2="101.3689" y2="115.5938" fill="none" stroke="#141f36" stroke-linecap="round" stroke-linejoin="round" stroke-width="0.5"/>
        </g>
        <g>
          <path d="M50.8523,95.9613c0,12.4294,2.9817,15.4111,15.4111,15.4111s15.4112-2.9817,15.4112-15.4111S78.6928,80.55,66.2634,80.55,50.8523,83.5318,50.8523,95.9613Zm6.2146,3.2014,4.8337-10.9855a4.76,4.76,0,0,1,8.7257,0L75.46,99.1627a5.1291,5.1291,0,0,1,.4079,1.82,4.4492,4.4492,0,0,1-4.6453,4.6453,7.4985,7.4985,0,0,1-2.4164-.4776,7.8425,7.8425,0,0,0-2.5427-.4953,8.0966,8.0966,0,0,0-2.5651.4986,7.629,7.629,0,0,1-2.394.4743,4.4493,4.4493,0,0,1-4.6453-4.6453A5.1291,5.1291,0,0,1,57.0669,99.1627Zm9.1965-9.0708L61.4925,100.889a11.28,11.28,0,0,1,4.7709-.973,10.9929,10.9929,0,0,1,4.7081.973Z" stroke="#141f36" stroke-linecap="round" stroke-linejoin="round" stroke-width="0.8583" fill-rule="evenodd" fill="url(#linear-gradient-16)"/>
          <path d="M66.2634,81.5339c-11.636,0-14.4274,2.7914-14.4274,14.4274s2.7914,14.4273,14.4274,14.4273" fill="none" stroke="#fff" stroke-linecap="round" stroke-linejoin="round" stroke-width="0.5" fill-rule="evenodd"/>
          <line x1="66.2572" y1="91.8597" x2="62.4388" y2="99.8784" fill="none" stroke="#fff" stroke-linecap="round" stroke-linejoin="round" stroke-width="0.5"/>
        </g>
      </g>
    </g>
  </g>
</svg>
