<svg xmlns="http://www.w3.org/2000/svg" xmlns:xlink="http://www.w3.org/1999/xlink" width="130" height="130" viewBox="0 0 130 130">
  <defs>
    <linearGradient id="linear-gradient" x1="-5171.4895" y1="4181.9418" x2="-5090.8398" y2="4181.9418" gradientTransform="translate(-4465.1067 -4751.9312) rotate(-94.0578)" gradientUnits="userSpaceOnUse">
      <stop offset="0" stop-color="#2d3d54"/>
      <stop offset="1" stop-color="#2d3d54"/>
    </linearGradient>
    <linearGradient id="linear-gradient-2" x1="30.798" y1="97.411" x2="99.0554" y2="29.1537" gradientUnits="userSpaceOnUse">
      <stop offset="0" stop-color="#2d3d54"/>
      <stop offset="1" stop-color="#141f36"/>
    </linearGradient>
    <linearGradient id="linear-gradient-3" x1="79.475" y1="76.4437" x2="103.4783" y2="52.4404" gradientUnits="userSpaceOnUse">
      <stop offset="0" stop-color="#364254"/>
      <stop offset="1" stop-color="#577290"/>
    </linearGradient>
    <linearGradient id="linear-gradient-4" x1="-9238.257" y1="76.4399" x2="-9262.2565" y2="52.4404" gradientTransform="matrix(-1, 0, 0, 1, -9211.8801, 0)" gradientUnits="userSpaceOnUse">
      <stop offset="0.0075" stop-color="#364254"/>
      <stop offset="0.2238" stop-color="#43546b"/>
      <stop offset="0.4877" stop-color="#4e657f"/>
      <stop offset="0.7484" stop-color="#556f8c"/>
      <stop offset="1" stop-color="#577290"/>
    </linearGradient>
    <linearGradient id="linear-gradient-5" x1="46.1632" y1="83.2065" x2="83.6937" y2="45.676" xlink:href="#linear-gradient-3"/>
    <linearGradient id="linear-gradient-6" x1="-5163.1073" y1="4178.4278" x2="-5082.4586" y2="4178.4278" xlink:href="#linear-gradient"/>
    <linearGradient id="linear-gradient-7" x1="80.354" y1="98.6319" x2="116.7355" y2="98.6319" xlink:href="#linear-gradient-3"/>
    <linearGradient id="linear-gradient-8" x1="81.0581" y1="99.9209" x2="92.1329" y2="99.9209" xlink:href="#linear-gradient-3"/>
  </defs>
  <g id="Camada_2" data-name="Camada 2">
    <g id="Layer">
      <path d="M23.4375,103.4c9.8756,11.7287,37.6276,4.6688,61.8636-15.7374s35.92-46.55,26.0406-58.2813l3.0262-2.5482A19.3429,19.3429,0,0,1,118.71,38.1737c1.0511,14.7806-10.5272,35.3934-30.86,52.5147C61.5064,112.87,31.8829,119.5722,20.4113,105.9472Z" stroke="#141f36" stroke-miterlimit="10" fill="url(#linear-gradient)"/>
      <g>
        <circle cx="64.9267" cy="63.2823" r="48.2652" stroke="#141f36" stroke-linecap="round" stroke-linejoin="round" fill="url(#linear-gradient-2)"/>
        <path d="M64.8053,16.6558a46.6266,46.6266,0,0,0,0,93.2531" fill="none" stroke="#fff" stroke-linecap="round" stroke-linejoin="round" stroke-width="0.5"/>
        <circle cx="69.2868" cy="60.5694" r="42.2548" fill="none" stroke="#141f36" stroke-linecap="round" stroke-linejoin="round" stroke-width="0.5"/>
        <path d="M98.5448,28.8217C83.04,32.1682,67.29,44.6515,57.5088,63.2206,50.0425,77.395,47.4676,92.4317,49.34,105.2842" fill="none" stroke="#141f36" stroke-linecap="round" stroke-linejoin="round" stroke-width="0.5"/>
        <path d="M54.4,96.7073c2.9016.3263,1.699-4.2162-.7644-4.54S51.4011,96.37,54.4,96.7073Z" fill="none" stroke="#141f36" stroke-linecap="round" stroke-linejoin="round" stroke-width="0.5"/>
        <path d="M30.6044,89.17c-1.4562,1.2943,2.7975,6.1545,4.0564,5.3152S31.8633,88.05,30.6044,89.17Z" fill="none" stroke="#141f36" stroke-linecap="round" stroke-linejoin="round" stroke-width="0.5"/>
        <path d="M26.7834,41.2068c-1.854-.7946-3.8911,4.9646-2.4152,5.9038S28.6619,42.0119,26.7834,41.2068Z" fill="none" stroke="#141f36" stroke-linecap="round" stroke-linejoin="round" stroke-width="0.5"/>
      </g>
      <g>
        <g>
          <path d="M86.0351,82.4466a1.1855,1.1855,0,0,1-1.0147-.4814,1.29,1.29,0,0,1-.081-1.212l6.2929-16.28-6.2871-16.34a1.2915,1.2915,0,0,1,.0791-1.2158,1.1837,1.1837,0,0,1,1.0147-.4824H96.786A1.5031,1.5031,0,0,1,98.28,47.4818l6.49,16.8623a.5009.5009,0,0,1-.001.3613L98.2675,81.4241a1.4921,1.4921,0,0,1-1.4854,1.0225Z" fill="url(#linear-gradient-3)"/>
          <path d="M96.7863,46.9353a1.0135,1.0135,0,0,1,1.02.7042l6.4971,16.8842-6.5013,16.719a1.0135,1.0135,0,0,1-1.02.7043H86.0346c-.55,0-.8631-.3908-.627-1.0178l6.3613-16.456-6.3571-16.52c-.2361-.627.0774-1.0177.6269-1.0177H96.7863m0-1H86.0387a1.6912,1.6912,0,0,0-1.4253.6973,1.7707,1.7707,0,0,0-.1374,1.6726l6.2214,16.1671L84.475,80.5687a1.7759,1.7759,0,0,0,.1343,1.6808,1.6908,1.6908,0,0,0,1.4253.6973H96.7821A2.0077,2.0077,0,0,0,98.75,81.56l6.4849-16.6735a1.0014,1.0014,0,0,0,.0012-.7215L98.7394,47.28a1.9922,1.9922,0,0,0-1.9531-1.345Z" fill="#141f36"/>
        </g>
        <polyline points="87.016 48.381 93.315 64.441 86.877 81.062" fill="none" stroke="#fff" stroke-linecap="round" stroke-linejoin="round" stroke-width="0.5"/>
      </g>
      <g>
        <g>
          <path d="M33.0712,82.4466a1.5016,1.5016,0,0,1-1.4941-1.0459L25.0839,64.7054a.5014.5014,0,0,1-.001-.3613L31.58,47.46a1.4967,1.4967,0,0,1,1.4873-1.0254H43.8144a1.1837,1.1837,0,0,1,1.0146.4824,1.2891,1.2891,0,0,1,.08,1.2129L38.621,64.473l6.291,16.2754a1.293,1.293,0,0,1-.0791,1.2168,1.1849,1.1849,0,0,1-1.0137.4814Z" fill="url(#linear-gradient-4)"/>
          <path d="M43.8146,46.9353c.55,0,.8633.3907.627,1.0177l-6.357,16.52,6.3613,16.456c.2361.627-.0773,1.0178-.6271,1.0178H33.0712a1.0131,1.0131,0,0,1-1.02-.7043L25.55,64.5237,32.0473,47.64a1.013,1.013,0,0,1,1.02-.7042H43.8146m0-1H33.067a2.0072,2.0072,0,0,0-1.9682,1.3877l-6.482,16.8415a1.0009,1.0009,0,0,0,.0013.7215L31.12,81.6051a1.99,1.99,0,0,0,1.9517,1.3417H43.8188a1.6913,1.6913,0,0,0,1.4255-.6973,1.7707,1.7707,0,0,0,.1374-1.6726L39.1562,64.4724l6.2185-16.16a1.7737,1.7737,0,0,0-.1346-1.6791,1.6907,1.6907,0,0,0-1.4255-.6975Z" fill="#141f36"/>
        </g>
        <polyline points="32.823 48.416 26.524 64.476 32.962 81.096" fill="none" stroke="#fff" stroke-linecap="round" stroke-linejoin="round" stroke-width="0.5"/>
      </g>
      <g>
        <g>
          <path d="M50.8427,87.3812a1.0965,1.0965,0,0,1-.9258-.4424,1.1728,1.1728,0,0,1-.0772-1.1025L66.7021,42.4212a1.36,1.36,0,0,1,1.3359-.92H79.0136a1.0937,1.0937,0,0,1,.9267.4434,1.168,1.168,0,0,1,.0762,1.1015L63.1552,86.46a1.36,1.36,0,0,1-1.3369.9209Z" fill="url(#linear-gradient-5)"/>
          <path d="M79.0133,42.0009c.4695,0,.7371.3336.5357.869l-16.86,43.41a.8654.8654,0,0,1-.8708.6014H50.8432c-.47,0-.7371-.3337-.5354-.8691l16.86-43.41a.8656.8656,0,0,1,.8711-.6013H79.0133m0-1H68.0385a1.8575,1.8575,0,0,0-1.8194,1.284L49.3756,85.65a1.66,1.66,0,0,0,.13,1.5725,1.5881,1.5881,0,0,0,1.3374.6584H61.8183a1.8566,1.8566,0,0,0,1.8191-1.2844L80.4811,43.2319a1.66,1.66,0,0,0-.1306-1.5726,1.5878,1.5878,0,0,0-1.3372-.6583Z" fill="#141f36"/>
        </g>
        <line x1="68.242" y1="43.0531" x2="51.9019" y2="85.7978" fill="none" stroke="#fff" stroke-linecap="round" stroke-linejoin="round" stroke-width="0.5"/>
      </g>
      <g>
        <path d="M23.4375,103.4l-3.0262,2.5475h0c-5.6322-6.6895-5.8276-17.1239-.5543-29.3792,5.084-11.8114,14.6973-24.0545,27.0723-34.475,26.3436-22.1812,55.9657-28.8838,67.4386-15.26l-3.0262,2.5482c-9.8756-11.7281-37.6275-4.6682-61.8636,15.7381-11.9133,10.0314-21.1425,21.756-25.987,33.0127-2.6266,6.105-3.7765,11.6257-3.4476,16.261a15.3409,15.3409,0,0,0,3.394,9.0069h0m-1.5131,1.2737-.0009-.0128Z" stroke="#141f36" stroke-miterlimit="10" fill="url(#linear-gradient-6)"/>
        <path d="M21.9948,106.3177h0c-5.5726-6.6186-5.7659-16.9424-.5485-29.068,5.03-11.6863,14.5417-23.8,26.7855-34.11C59.5231,33.6328,71.4232,27,82.2084,23.63" fill="none" stroke="#fff" stroke-linecap="round" stroke-linejoin="round" stroke-width="0.5"/>
        <line x1="16.4485" y1="97.4088" x2="20.2062" y2="96.0453" fill="none" stroke="#141f36" stroke-linecap="round" stroke-linejoin="round" stroke-width="0.5"/>
        <line x1="17.1644" y1="86.1186" x2="20.5233" y2="86.5117" fill="none" stroke="#141f36" stroke-linecap="round" stroke-linejoin="round" stroke-width="0.5"/>
      </g>
      <g>
        <path d="M80.354,79.6733V117.59a2.07,2.07,0,0,0,3.67,1.3139l8.7127-10.6067a2.07,2.07,0,0,1,1.4705-.7521l20.5848-1.2865a2.07,2.07,0,0,0,1.124-3.7137L83.6772,78.0257A2.07,2.07,0,0,0,80.354,79.6733Z" stroke="#141f36" stroke-linecap="round" stroke-linejoin="round" fill="url(#linear-gradient-7)"/>
        <path d="M81.0581,81.5934v35.9a1.3494,1.3494,0,0,0,2.4112.8328l8.3759-10.6793a1.3493,1.3493,0,0,0,.1937-1.3276l-9.83-24.944A.596.596,0,0,0,81.0581,81.5934Z" opacity="0.8" fill="url(#linear-gradient-8)"/>
        <line x1="82.016" y1="79.5434" x2="82.016" y2="116.871" fill="none" stroke="#fff" stroke-linecap="round" stroke-linejoin="round" stroke-width="0.5"/>
      </g>
      <rect width="130" height="130" fill="none"/>
    </g>
  </g>
</svg>
