<svg xmlns="http://www.w3.org/2000/svg" xmlns:xlink="http://www.w3.org/1999/xlink" width="130" height="130" viewBox="0 0 130 130">
  <defs>
    <linearGradient id="linear-gradient" x1="-9088.5665" y1="113.37" x2="-9045.7534" y2="70.5569" gradientTransform="matrix(-1, 0, 0, 1, -9002.0113, 0)" gradientUnits="userSpaceOnUse">
      <stop offset="0" stop-color="#141f36"/>
      <stop offset="1" stop-color="#2d3d54"/>
    </linearGradient>
    <linearGradient id="linear-gradient-2" x1="-8749.2062" y1="-1692.8078" x2="-8739.5373" y2="-1692.8078" gradientTransform="matrix(-0.9265, -0.3762, -0.3762, 0.9265, -8636.8379, -1669.1507)" gradientUnits="userSpaceOnUse">
      <stop offset="0" stop-color="#364254"/>
      <stop offset="1" stop-color="#577290"/>
    </linearGradient>
    <linearGradient id="linear-gradient-3" x1="-245.0685" y1="1760.2225" x2="-235.3996" y2="1760.2225" gradientTransform="matrix(0.9265, -0.3762, 0.3762, 0.9265, -412.667, -1669.1507)" xlink:href="#linear-gradient-2"/>
    <linearGradient id="linear-gradient-4" x1="-9090.4059" y1="97.7779" x2="-9043.914" y2="51.286" gradientTransform="matrix(-1, 0, 0, 1, -9002.0113, 0)" gradientUnits="userSpaceOnUse">
      <stop offset="0" stop-color="#2d3d54"/>
      <stop offset="1" stop-color="#2d3d54"/>
    </linearGradient>
    <linearGradient id="linear-gradient-5" x1="-9046.7162" y1="73.1611" x2="-9035.9345" y2="62.3794" gradientTransform="translate(-9002.0113 88.5535) rotate(180)" gradientUnits="userSpaceOnUse">
      <stop offset="0" stop-color="#4b6182"/>
      <stop offset="1" stop-color="#577290"/>
    </linearGradient>
    <linearGradient id="linear-gradient-6" x1="-9046.6738" y1="74.2781" x2="-9023.3846" y2="50.989" xlink:href="#linear-gradient-5"/>
    <linearGradient id="linear-gradient-7" x1="-9084.9233" y1="45.3855" x2="-9046.9298" y2="7.392" xlink:href="#linear-gradient"/>
    <linearGradient id="linear-gradient-8" x1="-9088.6773" y1="79.5655" x2="-9042.9709" y2="33.859" gradientTransform="matrix(-1, 0, 0, 1, -9002.0113, 0)" xlink:href="#linear-gradient-2"/>
    <linearGradient id="linear-gradient-9" x1="-9094.0283" y1="70.0508" x2="-9065.7121" y2="41.7346" xlink:href="#linear-gradient"/>
    <linearGradient id="linear-gradient-10" x1="-9083.9312" y1="84.3113" x2="-9038.225" y2="38.605" xlink:href="#linear-gradient"/>
    <linearGradient id="linear-gradient-11" x1="-9083.3424" y1="52.441" x2="-9048.5713" y2="17.67" gradientTransform="matrix(-1, 0, 0, 1, -9002.0113, 0)" xlink:href="#linear-gradient-2"/>
    <linearGradient id="linear-gradient-12" x1="-9078.6127" y1="50.4007" x2="-9053.0683" y2="24.8563" gradientTransform="matrix(-1, 0, 0, 1, -9002.0113, 0)" xlink:href="#linear-gradient-5"/>
    <linearGradient id="linear-gradient-13" x1="-9083.0131" y1="58.513" x2="-9077.1074" y2="52.6073" gradientTransform="matrix(-1, 0, 0, 1, -9002.0113, 0)" xlink:href="#linear-gradient-5"/>
    <linearGradient id="linear-gradient-14" x1="59.5577" y1="59.7892" x2="51.0995" y2="51.331" gradientTransform="translate(-4.5613)" xlink:href="#linear-gradient-5"/>
    <linearGradient id="linear-gradient-15" x1="-9052.3919" y1="109.169" x2="-9022.1165" y2="78.8936" xlink:href="#linear-gradient"/>
    <linearGradient id="linear-gradient-16" x1="-9038.1505" y1="87.8567" x2="-9022.748" y2="72.4542" xlink:href="#linear-gradient"/>
    <linearGradient id="linear-gradient-17" x1="-70.3154" y1="109.169" x2="-40.04" y2="78.8936" gradientTransform="translate(149.9346)" xlink:href="#linear-gradient"/>
    <linearGradient id="linear-gradient-18" x1="-56.0739" y1="87.8567" x2="-40.6715" y2="72.4542" gradientTransform="translate(149.9346)" xlink:href="#linear-gradient"/>
    <linearGradient id="linear-gradient-19" x1="-9072.9187" y1="106.6837" x2="-9061.7354" y2="95.5004" xlink:href="#linear-gradient"/>
    <linearGradient id="linear-gradient-20" x1="69.8358" y1="44.1678" x2="81.7718" y2="32.2318" gradientTransform="translate(-18.248)" xlink:href="#linear-gradient-2"/>
    <linearGradient id="linear-gradient-21" x1="82.0713" y1="45.1711" x2="94.393" y2="32.8494" gradientTransform="translate(-18.248)" xlink:href="#linear-gradient-2"/>
  </defs>
  <g id="Camada_2" data-name="Camada 2">
    <g id="Layer">
      <g>
        <path d="M65.1487,91.9635H22.3356l21.4065,19.364,14.1966,12.8419a10.7478,10.7478,0,0,0,14.42,0l14.1965-12.8419,21.4066-19.364Z" stroke="#141f36" stroke-miterlimit="10" fill="url(#linear-gradient)"/>
        <g>
          <g>
            <path d="M96.2873,72.0648a4.1774,4.1774,0,0,1-1.57-.3086l-1.2227-.497a4.1713,4.1713,0,0,1-2.2969-5.4375L103.79,34.808a4.1691,4.1691,0,0,1,5.4385-2.2959l1.2227.4961a4.179,4.179,0,0,1,2.2968,5.4385L100.1555,69.4593a4.16,4.16,0,0,1-3.8682,2.6055Z" fill="url(#linear-gradient-2)"/>
            <path d="M107.6586,32.7037a3.6635,3.6635,0,0,1,1.3811.2709l1.2232.4966a3.6746,3.6746,0,0,1,2.0222,4.7869L99.6926,69.2713a3.6714,3.6714,0,0,1-4.7869,2.0221l-1.2231-.4967A3.6744,3.6744,0,0,1,91.66,66.01l12.5926-31.0132a3.6759,3.6759,0,0,1,3.4057-2.293m0-1a4.6575,4.6575,0,0,0-4.3322,2.9167L90.7338,65.6337a4.6742,4.6742,0,0,0,2.5725,6.09L94.53,72.22a4.6712,4.6712,0,0,0,6.09-2.5723l12.5925-31.0133a4.68,4.68,0,0,0-2.5725-6.09l-1.2231-.4966a4.6509,4.6509,0,0,0-1.7574-.3444Z" fill="#141f36"/>
          </g>
          <line x1="112.0368" y1="38.8697" x2="102.85" y2="38.452" fill="none" stroke="#141f36" stroke-linecap="round" stroke-linejoin="round"/>
          <line x1="109.125" y1="46.0407" x2="99.9383" y2="45.623" fill="none" stroke="#141f36" stroke-linecap="round" stroke-linejoin="round"/>
          <line x1="106.2133" y1="53.2117" x2="97.0265" y2="52.794" fill="none" stroke="#141f36" stroke-linecap="round" stroke-linejoin="round"/>
          <line x1="103.3016" y1="60.3827" x2="94.1148" y2="59.965" fill="none" stroke="#141f36" stroke-linecap="round" stroke-linejoin="round"/>
          <line x1="100.3898" y1="67.5537" x2="91.2031" y2="67.136" fill="none" stroke="#141f36" stroke-linecap="round" stroke-linejoin="round"/>
        </g>
        <g>
          <g>
            <path d="M32.6486,72.0648a4.16,4.16,0,0,1-3.8681-2.6055L16.1877,38.4467a4.1728,4.1728,0,0,1,2.2969-5.4385l1.2236-.4961a4.1679,4.1679,0,0,1,5.4375,2.2959L37.7385,65.8217a4.1706,4.1706,0,0,1-2.2979,5.4375l-1.2217.497A4.1388,4.1388,0,0,1,32.6486,72.0648Z" fill="url(#linear-gradient-3)"/>
            <path d="M21.277,32.7037a3.6754,3.6754,0,0,1,3.4058,2.293L37.2756,66.01a3.6746,3.6746,0,0,1-2.0222,4.7868l-1.2232.4967a3.6714,3.6714,0,0,1-4.7869-2.0221L16.6508,38.2581a3.6746,3.6746,0,0,1,2.022-4.7869l1.2231-.4966a3.6658,3.6658,0,0,1,1.3811-.2709m0-1h0a4.6526,4.6526,0,0,0-1.7573.3443l-1.2231.4967a4.68,4.68,0,0,0-2.5723,6.09L28.3168,69.6475a4.6715,4.6715,0,0,0,6.09,2.5725l1.2232-.4968a4.68,4.68,0,0,0,2.5725-6.09L25.6093,34.6205a4.6571,4.6571,0,0,0-4.3323-2.9168Z" fill="#141f36"/>
          </g>
          <line x1="16.8991" y1="38.8697" x2="26.0858" y2="38.452" fill="none" stroke="#141f36" stroke-linecap="round" stroke-linejoin="round"/>
          <line x1="19.8108" y1="46.0407" x2="28.9975" y2="45.623" fill="none" stroke="#141f36" stroke-linecap="round" stroke-linejoin="round"/>
          <line x1="22.7225" y1="53.2117" x2="31.9093" y2="52.794" fill="none" stroke="#141f36" stroke-linecap="round" stroke-linejoin="round"/>
          <line x1="25.6342" y1="60.3827" x2="34.821" y2="59.965" fill="none" stroke="#141f36" stroke-linecap="round" stroke-linejoin="round"/>
          <line x1="28.546" y1="67.5537" x2="37.7327" y2="67.136" fill="none" stroke="#141f36" stroke-linecap="round" stroke-linejoin="round"/>
        </g>
        <path d="M85.675,59.1571c19.1017,0,43.6789,24.3213-18.429,41.0008H63.0513C.9434,83.4784,25.5207,59.1571,44.6224,59.1571Z" stroke="#141f36" stroke-miterlimit="10" fill="url(#linear-gradient-4)"/>
        <path d="M51.6324,35.4573s-14.2318,3.64-27.7718-26.213h5.037l3.8708-5.7884s4.7132,28.6125,18.864,28.6125Z" stroke="#141f36" stroke-linecap="round" stroke-linejoin="round" fill="url(#linear-gradient-5)"/>
        <path d="M56.937,26.55S50.4409,48.0177,34.6031,32.82c-12.1054-11.6159-21.179-3.2053-21.179-3.2053l1.2579-7.0229-3.2995-3.196s17.8836-10.14,24.9732,4.1279C46.5312,44.0022,56.937,26.55,56.937,26.55Z" stroke="#141f36" stroke-linecap="round" stroke-linejoin="round" fill="url(#linear-gradient-6)"/>
        <path d="M92.7147,30.8213c0-26.93-18.4864-28.7656-27.86-28.7656-8.12,0-29.6786,1.8355-29.6786,28.7656C35.1764,55.7436,92.7147,51.7861,92.7147,30.8213Z" stroke="#141f36" stroke-linecap="round" stroke-linejoin="round" fill="url(#linear-gradient-7)"/>
        <g>
          <path d="M64.1867,92.9154a11.152,11.152,0,0,1-4.6728-1.0186l-7.5245-3.4492A27.0853,27.0853,0,0,1,37.1242,70.9769l-2.4375-11.53a.5279.5279,0,0,1-.0107-.1036V40.35a.5.5,0,0,1,.5-.5H92.715a.5.5,0,0,1,.5.5V59.3431a.48.48,0,0,1-.0156.1231l-3.168,12.4844A27.0247,27.0247,0,0,1,76.9777,87.5843l-7.5068,4.0088A11.2546,11.2546,0,0,1,64.1867,92.9154Z" fill="url(#linear-gradient-8)"/>
          <path d="M92.7148,40.35V59.3428L89.5473,71.8273A26.6493,26.6493,0,0,1,76.7424,87.1432l-7.5069,4.009a10.7178,10.7178,0,0,1-9.5134.2894L52.197,87.9933a26.6479,26.6479,0,0,1-14.59-17.1492l-2.43-11.5013V40.35H92.7148m0-1H35.1765a1,1,0,0,0-1,1V59.3428a.9982.9982,0,0,0,.0217.2068l2.43,11.5012q.0061.03.0142.0589A27.5855,27.5855,0,0,0,51.7805,88.9024l7.5251,3.4483a11.6375,11.6375,0,0,0,4.8811,1.0651,11.759,11.759,0,0,0,5.52-1.3816l7.5069-4.0089A27.5155,27.5155,0,0,0,90.499,72.1346c.0066-.02.0124-.0407.0175-.0614L93.684,59.5887a.994.994,0,0,0,.0308-.2459V40.35a1,1,0,0,0-1-1Z" fill="#141f36"/>
        </g>
        <path d="M65.0827,40.3527V73.2775H88.79c.1877-.47.3621-.966.5231-1.4491L92.48,59.3374V40.3527Z" fill="url(#linear-gradient-9)"/>
        <g>
          <path d="M64.1877,92.9183a11.1165,11.1165,0,0,1-4.67-1.02L51.9914,88.45A27.0574,27.0574,0,0,1,37.133,70.9808L34.6867,59.4467a.5279.5279,0,0,1-.0107-.1036V40.35a.5.5,0,0,1,.5-.5.5144.5144,0,0,1,.1572.0254l2.6338.8711a.5.5,0,0,1,.3418.4521L39.19,60.9711l13.6289,7.48c3.6045-3.3437,7.4493-5.039,11.4327-5.039,6.082,0,10.541,3.914,11.6855,5.0263L92.468,58.9037a.5089.5089,0,0,1,.25-.0664.5.5,0,0,1,.4843.623l-3.166,12.4912a26.9883,26.9883,0,0,1-13.0625,15.627l-7.5,4.0107A11.22,11.22,0,0,1,64.1877,92.9183Z" fill="url(#linear-gradient-10)"/>
          <path d="M35.1765,40.35l2.6333.87.8923,20.0536,14.1948,7.79c4.0523-3.8645,7.9529-5.1524,11.354-5.1521,6.8013.0007,11.6021,5.1521,11.6021,5.1521l16.865-9.7272-3.1665,12.491A26.6108,26.6108,0,0,1,76.7387,87.1371l-7.5,4.0116a10.6906,10.6906,0,0,1-9.5125.2951l-7.5268-3.448A26.6278,26.6278,0,0,1,37.6149,70.8491L35.1765,59.3428V40.35m0-1a1,1,0,0,0-1,1V59.3428a1.0039,1.0039,0,0,0,.0217.2074l2.4385,11.5062q.0061.0288.0139.0572A27.5607,27.5607,0,0,0,51.7822,88.9047L59.31,92.353A11.6906,11.6906,0,0,0,69.7111,92.03l7.4993-4.011A27.4661,27.4661,0,0,0,90.5031,72.1353q.01-.03.0176-.0611l3.1665-12.4911a1,1,0,0,0-1.4688-1.1119L76.0092,67.82c-1.5222-1.4024-5.9111-4.907-11.7583-4.9076-4.0154,0-7.8826,1.6571-11.5054,4.9283L39.6762,60.668l-.8674-19.4918a1,1,0,0,0-.6851-.905l-2.6333-.87a.9966.9966,0,0,0-.3139-.0506Z" fill="#141f36"/>
        </g>
        <path d="M64.848,63.926V92.41a10.862,10.862,0,0,0,4.3873-1.2612l7.5-4.0116a26.6115,26.6115,0,0,0,12.813-15.3087l3.1665-12.4856V40.35l-3.0842,1.36L88.7753,61.61,75.85,69.0646S71.3282,64.2211,64.848,63.926Z" fill="#141f36"/>
        <g>
          <path d="M65.5139,46.17a93.5535,93.5535,0,0,1-30.501-5.3477.5006.5006,0,0,1-.3369-.4726V29.7611a.5.5,0,0,1,.5-.5.4941.4941,0,0,1,.1455.0215A115.84,115.84,0,0,0,65.4123,33.264a88.3382,88.3382,0,0,0,27.1494-3.9785.4843.4843,0,0,1,.1533-.0244.5.5,0,0,1,.5.5V40.35a.5027.5027,0,0,1-.2676.4433C92.8449,40.847,82.4875,46.17,65.5139,46.17Z" fill="url(#linear-gradient-11)"/>
          <path d="M92.7148,29.7607V40.35s-10.1543,5.32-27.2009,5.32a92.7641,92.7641,0,0,1-30.3374-5.32v-10.59a115.2472,115.2472,0,0,0,30.2355,4.003,89.1939,89.1939,0,0,0,27.3028-4.003m0-1a.9994.9994,0,0,0-.3076.0485A87.8216,87.8216,0,0,1,65.412,32.7637a115.3668,115.3668,0,0,1-29.9453-3.96,1,1,0,0,0-1.29.9569V40.35a1,1,0,0,0,.6738.9453A94.0648,94.0648,0,0,0,65.5139,46.67c17.0961,0,27.2414-5.2124,27.665-5.4343a1,1,0,0,0,.5359-.8858v-10.59a1,1,0,0,0-1-1Z" fill="#141f36"/>
        </g>
        <g>
          <path d="M65.0734,49.4945a59.21,59.21,0,0,1-17.3525-2.7471.4994.4994,0,0,1-.3535-.4775V28.7533a.4994.4994,0,0,1,.5-.5.4379.4379,0,0,1,.0615.0039,174.0649,174.0649,0,0,0,18.4326.69h.001c4.2422,0,8.834-.0761,13.6465-.2265h.0156a.5.5,0,0,1,.5.5V46.27a.5.5,0,0,1-.2754.4473C80.0236,46.83,74.6086,49.4945,65.0734,49.4945Z" fill="url(#linear-gradient-12)"/>
          <path d="M47.8669,28.7536a171.9594,171.9594,0,0,0,18.489.6938c3.8806,0,8.42-.0628,13.6682-.2265V46.27S74.6,48.9946,65.0727,48.9946A58.5013,58.5013,0,0,1,47.8669,46.27V28.7536m0-1a1,1,0,0,0-1,1V46.27a1,1,0,0,0,.7063.9559,59.7224,59.7224,0,0,0,17.4995,2.7692c9.6531,0,15.17-2.7159,15.4-2.8315a1,1,0,0,0,.551-.8936V29.2209a1,1,0,0,0-1-1l-.0312,0c-4.8094.15-9.3975.2261-13.637.2261a173.8862,173.8862,0,0,1-18.3665-.6863.983.983,0,0,0-.1223-.0076Z" fill="#141f36"/>
        </g>
        <polygon points="50.903 69.691 38.797 62.888 38.797 65.448 49.905 71.813 50.903 69.691" fill="#141f36"/>
        <polygon points="50.903 75.618 40.148 69.645 40.148 72.204 49.905 77.74 50.903 75.618" fill="#141f36"/>
        <g>
          <path d="M75.8547,59.6566a4.5689,4.5689,0,0,1-4.2061-2.2656.502.502,0,0,1-.0332-.4336c.0215-.0537,2.16-5.3232,7.9815-5.3232a10.99,10.99,0,0,1,2.164.2246c2.3145.4668,2.543,1.708,2.4737,2.4062C83.9875,56.7347,79.4465,59.6566,75.8547,59.6566Z" fill="url(#linear-gradient-13)"/>
          <path d="M79.5966,52.134a10.4477,10.4477,0,0,1,2.0659.2153c5.427,1.0934-.9152,6.8078-5.8073,6.8078A4.094,4.094,0,0,1,72.081,57.14a8.2973,8.2973,0,0,1,7.5156-5.0061m0-1h0a9.235,9.235,0,0,0-8.4463,5.64,1,1,0,0,0,.0652.8669,5.0459,5.0459,0,0,0,4.64,2.516c3.8757,0,8.6045-3.1122,8.8767-5.8422.07-.6978-.0708-2.3816-2.8719-2.9459a11.508,11.508,0,0,0-2.2631-.235Z" fill="#141f36"/>
        </g>
        <g>
          <path d="M52.9611,59.6566c-3.5908,0-8.1328-2.9228-8.38-5.3916-.0693-.6982.1592-1.9394,2.4737-2.4062a10.99,10.99,0,0,1,2.164-.2246A8.8759,8.8759,0,0,1,57.2,56.9574a.4988.4988,0,0,1-.0322.4336,4.5705,4.5705,0,0,1-4.2071,2.2656Z" fill="url(#linear-gradient-14)"/>
          <path d="M49.2194,52.134A8.2972,8.2972,0,0,1,56.735,57.14a4.0938,4.0938,0,0,1-3.7741,2.017c-4.8921,0-11.2344-5.7144-5.8074-6.8078a10.4484,10.4484,0,0,1,2.0659-.2153m0-1a11.51,11.51,0,0,0-2.2634.235c-2.801.5643-2.9417,2.2481-2.8718,2.9459.2722,2.73,5.0009,5.8422,8.8767,5.8422a5.0458,5.0458,0,0,0,4.64-2.516.9993.9993,0,0,0,.0652-.8668,9.2348,9.2348,0,0,0-8.4463-5.64Z" fill="#141f36"/>
        </g>
        <path d="M21.72,77.2784,59.13,97.0854l-4.5938,7.9283s-24.127-3.2646-43.82-14.6769Z" stroke="#141f36" stroke-linecap="round" stroke-linejoin="round" fill="url(#linear-gradient-15)"/>
        <path d="M26.82,66.3843S19.7024,73.203,15.5153,79.6575L32.6167,91.3793l6.18-6.5841S33.9714,71.6759,26.82,66.3843Z" stroke="#141f36" stroke-linecap="round" stroke-linejoin="round" fill="url(#linear-gradient-16)"/>
        <path d="M108.28,77.2784,70.87,97.0854l4.5938,7.9283s24.127-3.2646,43.82-14.6769Z" stroke="#141f36" stroke-linecap="round" stroke-linejoin="round" fill="url(#linear-gradient-17)"/>
        <path d="M103.18,66.3843s7.1173,6.8187,11.3044,13.2732L97.3833,91.3793l-6.18-6.5841S96.0285,71.6759,103.18,66.3843Z" stroke="#141f36" stroke-linecap="round" stroke-linejoin="round" fill="url(#linear-gradient-18)"/>
        <ellipse cx="65.3158" cy="101.092" rx="9.3153" ry="6.186" stroke="#141f36" stroke-miterlimit="10" fill="url(#linear-gradient-19)"/>
        <path d="M54.8134,53.6848v5.4723a10.2782,10.2782,0,0,1-7.8205-2.342V52.3493S52.0676,50.23,54.8134,53.6848Z" fill="#141f36"/>
        <path d="M74.0026,53.6848v5.4723a10.2782,10.2782,0,0,0,7.82-2.342V52.3493S76.7485,50.23,74.0026,53.6848Z" fill="#141f36"/>
        <path d="M59.13,52.4719s-5.2727-3.46-15.17-3.4774" fill="none" stroke="#141f36" stroke-linecap="round" stroke-linejoin="round" stroke-width="2"/>
        <path d="M70.3281,52.4719s5.2727-3.46,15.17-3.4774" fill="none" stroke="#141f36" stroke-linecap="round" stroke-linejoin="round" stroke-width="2"/>
        <path d="M112.0368,76.2305A162.8859,162.8859,0,0,0,95.332,89.1939a104.8513,104.8513,0,0,1-21.3294,9.0154" fill="none" stroke="#141f36" stroke-linecap="round" stroke-linejoin="round" stroke-width="0.5"/>
        <path d="M106.2133,70.5509s-8.7384,7.1264-12.89,16.5032" fill="none" stroke="#141f36" stroke-linecap="round" stroke-linejoin="round" stroke-width="0.5"/>
        <path d="M115.9352,86.3627S98.0594,98.7792,74.6311,101.092" fill="none" stroke="#141f36" stroke-linecap="round" stroke-linejoin="round" stroke-width="0.5"/>
        <path d="M18.1085,76.2305A162.8859,162.8859,0,0,1,34.8133,89.1939a104.8519,104.8519,0,0,0,21.3293,9.0154" fill="none" stroke="#141f36" stroke-linecap="round" stroke-linejoin="round" stroke-width="0.5"/>
        <path d="M23.932,70.5509s8.7384,7.1264,12.89,16.5032" fill="none" stroke="#141f36" stroke-linecap="round" stroke-linejoin="round" stroke-width="0.5"/>
        <path d="M14.21,86.3627S32.0859,98.7792,55.5142,101.092" fill="none" stroke="#141f36" stroke-linecap="round" stroke-linejoin="round" stroke-width="0.5"/>
        <path d="M14.8858,27.0813a14.2546,14.2546,0,0,1,11.5931-.7955A26.1658,26.1658,0,0,1,32.64,29.8114" fill="none" stroke="#fff" stroke-linecap="round" stroke-linejoin="round" stroke-width="0.5"/>
        <line x1="26.1249" y1="10.6987" x2="28.1603" y2="15.4048" fill="none" stroke="#fff" stroke-linecap="round" stroke-linejoin="round" stroke-width="0.5"/>
        <path d="M36.0827,31.2186V39.508a58.0283,58.0283,0,0,0,10.0956,2.684" fill="none" stroke="#fff" stroke-linecap="round" stroke-linejoin="round" stroke-width="0.5"/>
        <path d="M36.0827,42.85v16.383s1.8754,12.477,4.0651,15.7691S44.73,85.2331,62.9017,91.1461" fill="none" stroke="#fff" stroke-linecap="round" stroke-linejoin="round" stroke-width="0.5"/>
        <line x1="40.1478" y1="44.7159" x2="41.1305" y2="60.3827" fill="none" stroke="#fff" stroke-linecap="round" stroke-linejoin="round" stroke-width="0.5"/>
        <g>
          <g>
            <g>
              <path d="M57.089,46.4593A6.88,6.88,0,0,1,51.714,44.27a.501.501,0,0,1-.0009-.6475l2.458-2.9023a.5019.5019,0,0,1,.3818-.1768h.0059a.5014.5014,0,0,1,.3838.1866c.6308.7832,1.1894,1.1474,1.76,1.1474.4522,0,.9707-.1347.9707-1.1836v-4.65H53.5656a.5.5,0,0,1-.5-.5V32.099a.5.5,0,0,1,.5-.5h9.1182a.5.5,0,0,1,.5.5v8.3242C63.1838,44.3724,61.0764,46.4593,57.089,46.4593Z" fill="url(#linear-gradient-20)"/>
              <path d="M62.6833,32.0988v8.3247c0,3.7167-1.9548,5.5356-5.594,5.5356a6.3588,6.3588,0,0,1-4.9944-2.0132l2.458-2.903a2.8524,2.8524,0,0,0,2.1492,1.3346c.9482,0,1.4712-.58,1.4712-1.6838v-5.15H53.5661v-3.445h9.1172m0-1H53.5661a1,1,0,0,0-1,1v3.445a1,1,0,0,0,1,1h3.6072v4.15c0,.6838-.208.6838-.4712.6838-.2556,0-.676-.1-1.37-.9619a1,1,0,0,0-.7666-.3726l-.0122,0a1,1,0,0,0-.7632.3538L51.3317,43.3a1,1,0,0,0,.0025,1.2951,7.3674,7.3674,0,0,0,5.7551,2.3643c4.2522,0,6.594-2.321,6.594-6.5356V32.0988a1,1,0,0,0-1-1Z" fill="#141f36"/>
            </g>
            <g>
              <path d="M69.8293,46.4593a12.5485,12.5485,0,0,1-6.166-1.4677.5.5,0,0,1-.1953-.628l1.4716-3.33a.5.5,0,0,1,.7119-.2285,8.78,8.78,0,0,0,4.2159,1.17c1.0957,0,1.2588-.211,1.26-.2139.002-.2422-1.2763-.5078-1.8906-.6357-2.23-.4639-5.5986-1.1641-5.5986-4.7676,0-2.3379,1.7832-5.0684,6.8105-5.0684a11.2879,11.2879,0,0,1,5.3555,1.2451.5.5,0,0,1,.2168.627l-1.374,3.31a.5.5,0,0,1-.2881.2773.511.511,0,0,1-.1738.0313.5038.5038,0,0,1-.2256-.0538,7.92,7.92,0,0,0-3.55-.9521c-.7422,0-1.2608.1445-1.2608.3516a5.2505,5.2505,0,0,0,1.8457.5488c2.2481.4492,5.6455,1.1269,5.6455,4.7168C76.64,43.9134,74.5344,46.4593,69.8293,46.4593Z" fill="url(#linear-gradient-21)"/>
              <path d="M70.4487,31.7891a10.7447,10.7447,0,0,1,5.11,1.1812l-1.374,3.31A8.3613,8.3613,0,0,0,70.41,35.2735c-1.3361,0-1.7612.3871-1.7612.8517,0,1.6261,7.4912.2718,7.4912,5.2654,0,2.4779-2.11,4.5685-6.3108,4.5685a12.1451,12.1451,0,0,1-5.9038-1.3937l1.4712-3.33a9.2963,9.2963,0,0,0,4.4715,1.2389c1.2966,0,1.7612-.2718,1.7612-.7364,0-1.7035-7.4912-.328-7.4912-5.3808,0-2.5173,2.11-4.5684,6.3108-4.5684m0-1c-5.3963,0-7.3108,3-7.3108,5.5684a4.3362,4.3362,0,0,0,2.0627,3.8976,1.0017,1.0017,0,0,0-.719.5765l-1.4712,3.33a1,1,0,0,0,.3914,1.2562,13.0664,13.0664,0,0,0,6.4272,1.5417c5.05,0,7.3108-2.7968,7.3108-5.5685a4.3668,4.3668,0,0,0-2.6079-4.1729.9993.9993,0,0,0,.5759-.5542l1.3741-3.31a1,1,0,0,0-.4334-1.255,11.6227,11.6227,0,0,0-5.6-1.31Z" fill="#141f36"/>
            </g>
          </g>
          <line x1="54.3527" y1="32.7007" x2="54.3527" y2="34.917" fill="none" stroke="#fff" stroke-linecap="round" stroke-linejoin="round" stroke-width="0.5"/>
          <path d="M58.9808,35.6992V41.24c0,1.9555-2.6726,2.6074-4.6281.9777" fill="none" stroke="#fff" stroke-linecap="round" stroke-linejoin="round" stroke-width="0.5"/>
          <path d="M70.0325,32.44c-2.1866,0-5.037,1.4957-5.037,3.911s2.7137,3.091,5.9548,3.9274c2.2733.5867,1.4654,2.8559-.4413,2.8559a13.56,13.56,0,0,1-4.982-.9167" fill="none" stroke="#fff" stroke-linecap="round" stroke-linejoin="round" stroke-width="0.5"/>
        </g>
        <line x1="24.4042" y1="54.6742" x2="26.0858" y2="59.1571" fill="none" stroke="#fff" stroke-linecap="round" stroke-linejoin="round" stroke-width="0.5"/>
        <line x1="26.9631" y1="61.6789" x2="27.8252" y2="63.645" fill="none" stroke="#fff" stroke-linecap="round" stroke-linejoin="round" stroke-width="0.5"/>
        <path d="M17.2469,37.7155s-.5228-3.8066,3.8084-4.3015" fill="none" stroke="#fff" stroke-linecap="round" stroke-linejoin="round" stroke-width="0.5"/>
        <path d="M33.9978,62.8881a39.4733,39.4733,0,0,0-5,3.4919" fill="none" stroke="#fff" stroke-linecap="round" stroke-linejoin="round" stroke-width="0.5"/>
        <path d="M27.1561,68.4184s-6.3813,6.109-9.3441,10.7539c0,0,9.3423,7.042,10.734,8.0476" fill="none" stroke="#fff" stroke-linecap="round" stroke-linejoin="round" stroke-width="0.5"/>
        <path d="M18.47,83.3422l-5.5416,6.4744S24.0947,96.73,34.8621,98.8147" fill="none" stroke="#fff" stroke-linecap="round" stroke-linejoin="round" stroke-width="0.5"/>
        <line x1="36.0827" y1="102.3262" x2="59.7853" y2="124.1633" fill="none" stroke="#fff" stroke-linecap="round" stroke-linejoin="round" stroke-width="0.5"/>
        <path d="M61.87,96.73c-4.43,1.0682-6.48,6.0826-.8779,8.2839" fill="none" stroke="#fff" stroke-linecap="round" stroke-linejoin="round" stroke-width="0.5"/>
        <path d="M37.1256,27.4876S36.5515,3.4559,64.848,3.4559" fill="none" stroke="#fff" stroke-linecap="round" stroke-linejoin="round" stroke-width="0.5"/>
        <line x1="95.4488" y1="58.7618" x2="97.2595" y2="54.0433" fill="none" stroke="#fff" stroke-linecap="round" stroke-linejoin="round" stroke-width="0.5"/>
        <line x1="98.3019" y1="51.7059" x2="100.14" y2="46.9105" fill="none" stroke="#fff" stroke-linecap="round" stroke-linejoin="round" stroke-width="0.5"/>
        <line x1="101.0727" y1="44.6061" x2="103.1577" y2="39.5584" fill="none" stroke="#fff" stroke-linecap="round" stroke-linejoin="round" stroke-width="0.5"/>
        <path d="M103.7886,37.5008s1.1522-4.1973,4.4717-4.1973" fill="none" stroke="#fff" stroke-linecap="round" stroke-linejoin="round" stroke-width="0.5"/>
        <path d="M13.9123,19.8129s9.3079-4.3472,16.07-.9134A9.7336,9.7336,0,0,1,33.509,22.03" fill="none" stroke="#141f36" stroke-linecap="round" stroke-linejoin="round" stroke-width="0.5"/>
        <path d="M37.7327,29.1875S43.8007.31,80.3832,5.2185" fill="none" stroke="#141f36" stroke-linecap="round" stroke-linejoin="round" stroke-width="0.5"/>
        <path d="M43.96,30.3672S50.9691,3.5656,81.8231,6.6381" fill="none" stroke="#141f36" stroke-linecap="round" stroke-linejoin="round" stroke-width="0.5"/>
        <path d="M54.8134,28.467S58.8711,8.4313,83.7448,7.8452" fill="none" stroke="#141f36" stroke-linecap="round" stroke-linejoin="round" stroke-width="0.5"/>
        <path d="M67.9353,29.04S68.4,11.68,85.4977,9.2718" fill="none" stroke="#141f36" stroke-linecap="round" stroke-linejoin="round" stroke-width="0.5"/>
        <path d="M83.1993,31.2186c-.48,0-7.6272-15.8706,3.4634-20.9937" fill="none" stroke="#141f36" stroke-linecap="round" stroke-linejoin="round" stroke-width="0.5"/>
        <path d="M87.548,11.3577s-6.2262,11.3693,3.6551,18.403" fill="none" stroke="#141f36" stroke-linecap="round" stroke-linejoin="round" stroke-width="0.5"/>
        <line x1="21.0553" y1="47.0572" x2="22.9967" y2="51.8823" fill="none" stroke="#fff" stroke-linecap="round" stroke-linejoin="round" stroke-width="0.5"/>
        <line x1="18.051" y1="39.8598" x2="19.9409" y2="44.7159" fill="none" stroke="#fff" stroke-linecap="round" stroke-linejoin="round" stroke-width="0.5"/>
      </g>
      <rect width="130" height="130" fill="none"/>
    </g>
  </g>
</svg>
