<svg xmlns="http://www.w3.org/2000/svg" xmlns:xlink="http://www.w3.org/1999/xlink" width="130" height="130" viewBox="0 0 130 130">
  <defs>
    <linearGradient id="linear-gradient" x1="73.2361" y1="65.8384" x2="73.2361" y2="49.273" gradientUnits="userSpaceOnUse">
      <stop offset="0" stop-color="#2d3d54"/>
      <stop offset="1" stop-color="#2d3d54"/>
    </linearGradient>
    <linearGradient id="linear-gradient-2" x1="66.6989" y1="58.8218" x2="73.4031" y2="58.8218" xlink:href="#linear-gradient"/>
    <linearGradient id="linear-gradient-3" x1="57.364" y1="67.105" x2="57.364" y2="50.5386" xlink:href="#linear-gradient"/>
    <linearGradient id="linear-gradient-4" x1="50.8267" y1="60.088" x2="57.5309" y2="60.088" xlink:href="#linear-gradient"/>
    <linearGradient id="linear-gradient-5" x1="65.4334" y1="80.4693" x2="65.4334" y2="63.9039" xlink:href="#linear-gradient"/>
    <linearGradient id="linear-gradient-6" x1="58.8959" y1="73.4529" x2="65.6001" y2="73.4529" xlink:href="#linear-gradient"/>
    <linearGradient id="linear-gradient-7" x1="65.4334" y1="63.3326" x2="65.4334" y2="46.7662" gradientUnits="userSpaceOnUse">
      <stop offset="0" stop-color="#3f5679"/>
      <stop offset="0.1199" stop-color="#43597c"/>
      <stop offset="0.5146" stop-color="#4b6182"/>
      <stop offset="0.7657" stop-color="#4f6787"/>
      <stop offset="1" stop-color="#577290"/>
    </linearGradient>
    <linearGradient id="linear-gradient-8" x1="57.7972" y1="75.4273" x2="57.7972" y2="58.8619" xlink:href="#linear-gradient-7"/>
    <linearGradient id="linear-gradient-9" x1="73.0691" y1="75.4273" x2="73.0691" y2="58.8619" xlink:href="#linear-gradient-7"/>
    <linearGradient id="linear-gradient-10" x1="5.1858" y1="63.1768" x2="124.8138" y2="63.1768" xlink:href="#linear-gradient"/>
    <linearGradient id="linear-gradient-11" x1="-1323.325" y1="5138.4027" x2="-1203.6969" y2="5138.4027" gradientTransform="translate(-3320.0599 -4003.8876) rotate(-53.5857)" xlink:href="#linear-gradient"/>
    <linearGradient id="linear-gradient-12" x1="-8043.4139" y1="6604.9482" x2="-7923.7859" y2="6604.9482" gradientTransform="translate(-9972.984 -2506.2737) rotate(-126.0407)" xlink:href="#linear-gradient"/>
    <linearGradient id="linear-gradient-13" x1="101.5691" y1="28.4507" x2="101.5691" y2="11.8853" xlink:href="#linear-gradient-7"/>
    <linearGradient id="linear-gradient-14" x1="65.4334" y1="70.1539" x2="65.4334" y2="53.5884" xlink:href="#linear-gradient-7"/>
    <linearGradient id="linear-gradient-15" x1="46.031" y1="118.4742" x2="46.031" y2="105.3902" xlink:href="#linear-gradient-7"/>
    <linearGradient id="linear-gradient-16" x1="14.4104" y1="55.189" x2="14.4104" y2="44.1929" xlink:href="#linear-gradient-7"/>
  </defs>
  <g id="Camada_2" data-name="Camada 2">
    <g id="Layer">
      <g>
        <g>
          <g>
            <path d="M73.2366,65.8384a8.284,8.284,0,1,1,8.1357-8.2832A8.22,8.22,0,0,1,73.2366,65.8384Z" fill="url(#linear-gradient)"/>
            <path d="M73.2361,49.7727A7.7843,7.7843,0,1,1,65.6,57.5556a7.7107,7.7107,0,0,1,7.636-7.7829m0-1a8.7841,8.7841,0,1,0,8.6362,8.7829,8.72,8.72,0,0,0-8.6362-8.7829Z" fill="#141f36"/>
          </g>
          <path d="M68.217,53.24a6.8849,6.8849,0,0,0-1.5181,4.3307,6.77,6.77,0,0,0,6.7042,6.8332" stroke="#141f36" stroke-miterlimit="10" fill="url(#linear-gradient-2)"/>
        </g>
        <g>
          <g>
            <path d="M57.3636,67.105A8.2845,8.2845,0,1,1,65.5,58.8218,8.22,8.22,0,0,1,57.3636,67.105Z" fill="url(#linear-gradient-3)"/>
            <path d="M57.364,51.0389a7.7843,7.7843,0,1,1-7.6359,7.7829,7.71,7.71,0,0,1,7.6359-7.7829m0-1A8.7841,8.7841,0,1,0,66,58.8218a8.72,8.72,0,0,0-8.636-8.7829Z" fill="#141f36"/>
          </g>
          <path d="M52.3448,54.5061a6.8857,6.8857,0,0,0-1.5181,4.3307A6.77,6.77,0,0,0,57.5309,65.67" stroke="#141f36" stroke-miterlimit="10" fill="url(#linear-gradient-4)"/>
        </g>
        <g>
          <g>
            <path d="M65.4329,80.4693A8.284,8.284,0,1,1,73.57,72.1871,8.2193,8.2193,0,0,1,65.4329,80.4693Z" fill="url(#linear-gradient-5)"/>
            <path d="M65.4331,64.4037a7.7843,7.7843,0,1,1-7.6359,7.7829,7.7105,7.7105,0,0,1,7.6359-7.7829m0-1a8.7841,8.7841,0,1,0,8.636,8.7829,8.72,8.72,0,0,0-8.636-8.7829Z" fill="#141f36"/>
          </g>
          <path d="M60.414,67.8709a6.8857,6.8857,0,0,0-1.5181,4.3307A6.77,6.77,0,0,0,65.6,79.0348" stroke="#141f36" stroke-miterlimit="10" fill="url(#linear-gradient-6)"/>
        </g>
        <g>
          <g>
            <path d="M65.4329,63.3326A8.2845,8.2845,0,1,1,73.57,55.0494,8.22,8.22,0,0,1,65.4329,63.3326Z" fill="url(#linear-gradient-7)"/>
            <path d="M65.4331,47.2664a7.7843,7.7843,0,1,1-7.6359,7.7829,7.7105,7.7105,0,0,1,7.6359-7.7829m0-1a8.7839,8.7839,0,1,0,8.6358,8.7827,8.72,8.72,0,0,0-8.6358-8.7827Z" fill="#141f36"/>
          </g>
          <path d="M60.414,50.7336a6.8857,6.8857,0,0,0-1.5181,4.3307A6.77,6.77,0,0,0,65.6,61.8975" fill="none" stroke="#fff" stroke-linecap="round" stroke-linejoin="round" stroke-width="0.5"/>
        </g>
        <g>
          <g>
            <path d="M57.7972,75.4273a8.284,8.284,0,1,1,8.1357-8.2832A8.22,8.22,0,0,1,57.7972,75.4273Z" fill="url(#linear-gradient-8)"/>
            <path d="M57.7972,59.3615a7.7843,7.7843,0,1,1-7.636,7.7829,7.71,7.71,0,0,1,7.636-7.7829m0-1a8.784,8.784,0,1,0,8.6357,8.7827,8.72,8.72,0,0,0-8.6357-8.7827Z" fill="#141f36"/>
          </g>
          <path d="M52.7781,62.8287A6.885,6.885,0,0,0,51.26,67.1594a6.77,6.77,0,0,0,6.7042,6.8331" fill="none" stroke="#fff" stroke-linecap="round" stroke-linejoin="round" stroke-width="0.5"/>
        </g>
        <g>
          <g>
            <path d="M73.07,75.4273a8.284,8.284,0,1,1,8.1358-8.2832A8.22,8.22,0,0,1,73.07,75.4273Z" fill="url(#linear-gradient-9)"/>
            <path d="M73.0691,59.3615a7.7843,7.7843,0,1,1-7.636,7.7829,7.7107,7.7107,0,0,1,7.636-7.7829m0-1a8.7839,8.7839,0,1,0,8.6363,8.7827,8.72,8.72,0,0,0-8.6363-8.7827Z" fill="#141f36"/>
          </g>
          <path d="M68.05,62.8287a6.8855,6.8855,0,0,0-1.5181,4.3307,6.77,6.77,0,0,0,6.7042,6.8331" fill="none" stroke="#fff" stroke-linecap="round" stroke-linejoin="round" stroke-width="0.5"/>
        </g>
        <g>
          <path d="M65,94.355c-33.541,0-59.8145-13.6953-59.8145-31.1787S31.4593,31.9986,65,31.9986s59.8135,13.6953,59.8135,31.1777S98.54,94.355,65,94.355Zm0-57.5361c-30.3233,0-54.9932,11.8242-54.9932,26.3574S34.677,89.5337,65,89.5337,119.9934,77.71,119.9934,63.1763,95.3235,36.8189,65,36.8189Z" fill="url(#linear-gradient-10)"/>
          <path d="M65,32.4982c33.26,0,59.3135,13.476,59.3135,30.6783S98.2605,93.8547,65,93.8547,5.6861,80.3787,5.6861,63.1765,31.74,32.4982,65,32.4982m0,57.5357c30.5986,0,55.4927-12.0481,55.4927-26.8574S95.5989,36.319,65,36.319,9.5069,48.3672,9.5069,63.1765,34.4009,90.0339,65,90.0339m0-58.5357c-33.8211,0-60.3142,13.9148-60.3142,31.6783S31.1792,94.8547,65,94.8547,125.3138,80.94,125.3138,63.1765,98.8211,31.4982,65,31.4982Zm0,57.5357c-14.6514,0-28.4258-2.7613-38.7859-7.7753-10.1292-4.9023-15.7075-11.324-15.7075-18.0821s5.5783-13.18,15.7075-18.0821C36.5745,40.08,50.3489,37.319,65,37.319s28.4253,2.7614,38.7851,7.7754c10.1294,4.9023,15.7076,11.324,15.7076,18.0821s-5.5782,13.18-15.7076,18.0821C93.4256,86.2726,79.6512,89.0339,65,89.0339Z" fill="#141f36"/>
        </g>
        <path d="M61.18,32.9217C30.58,32.9217,5.686,46.4939,5.686,63.1765S30.58,93.4312,61.18,93.4312" fill="none" stroke="#fff" stroke-linecap="round" stroke-linejoin="round" stroke-width="0.5"/>
        <g>
          <path d="M41.15,114.89a19.1723,19.1723,0,0,1-11.6572-3.5791c-6.9561-5.13-9.56-15.0586-7.333-27.9551C24.2864,71.0435,30.59,57.3033,39.91,44.6685s20.585-22.7129,31.7217-28.38c6.2559-3.1836,12.0791-4.7978,17.3086-4.7978a19.0281,19.0281,0,0,1,11.5664,3.5508C114.5755,25.4185,110,54.6919,90.09,81.6841,75.21,101.856,55.9993,114.89,41.15,114.89Zm47.7676-98.584c-4.4395,0-9.52,1.4395-15.1,4.2783C63.3352,25.92,52.6712,35.4888,43.7893,47.5308S28.9114,72.5875,26.91,84.1763c-1.9,11.0049.0342,19.2637,5.4453,23.2559a14.5717,14.5717,0,0,0,8.8565,2.667c13.1142.001,31.1982-12.5684,44.999-31.2774,18-24.4023,23.1289-51.2734,11.4336-59.9013A14.3642,14.3642,0,0,0,88.9173,16.3062Z" fill="url(#linear-gradient-11)"/>
          <path d="M88.94,11.9908a18.58,18.58,0,0,1,11.27,3.4532c13.8428,10.2111,9.2212,39.1767-10.5219,65.9434C74.5074,101.9664,55.4422,114.39,41.15,114.39a18.724,18.724,0,0,1-11.36-3.4813c-6.7959-5.0123-9.33-14.7683-7.1372-27.4682,2.1131-12.2372,8.3848-25.901,17.66-38.4752s20.4783-22.6,31.5464-28.2318c6.2049-3.1576,11.9964-4.7428,17.0813-4.743M41.2117,110.599c12.9141,0,31.11-12.1052,45.4019-31.48,18.1635-24.6237,23.2456-51.8095,11.3281-60.6a14.8755,14.8755,0,0,0-9.0239-2.7126c-4.46,0-9.6607,1.45-15.3265,4.3332-10.5488,5.368-21.2753,14.99-30.2043,27.095S28.4317,72.4287,26.4175,84.0913c-1.9341,11.2012.0689,19.6326,5.6409,23.7432a15.0855,15.0855,0,0,0,9.1533,2.7645M88.9412,10.9908h0c-5.3106,0-11.21,1.6326-17.5359,4.8517C60.2019,21.543,48.8738,31.6749,39.5078,44.3719S23.8062,70.8836,21.6673,83.2707c-2.2613,13.093.4126,23.1943,7.529,28.4431A19.6646,19.6646,0,0,0,41.15,115.39c15.0032,0,34.3716-13.1139,49.3433-33.4092,20.0756-27.2177,24.6049-56.7978,10.311-67.3419a19.5185,19.5185,0,0,0-11.8628-3.6484ZM41.2117,109.599a14.08,14.08,0,0,1-8.56-2.5692c-5.2512-3.874-7.1154-11.96-5.2492-22.7683C29.3914,72.748,35.3538,59.809,44.1917,47.8278S63.6314,26.33,74.045,21.03c5.5085-2.8031,10.5124-4.2244,14.8728-4.2244a13.8727,13.8727,0,0,1,8.43,2.5174c5.4385,4.0116,7.295,12.3127,5.2271,23.3743C100.46,54.0112,94.5056,66.735,85.8089,78.5252c-13.71,18.5862-31.6326,31.0738-44.5972,31.0738Z" fill="#141f36"/>
        </g>
        <path d="M60.3213,108.3929c-6.7651,3.7779-13.3221,5.8078-19.0993,5.8078a18.7235,18.7235,0,0,1-11.36-3.4813c-6.7958-5.0123-9.3306-14.7682-7.1372-27.4681C24.8381,71.0141,31.11,57.35,40.3849,44.776a105.5132,105.5132,0,0,1,21.036-21.6027" fill="none" stroke="#fff" stroke-linecap="round" stroke-linejoin="round" stroke-width="0.5"/>
        <g>
          <path d="M88.6712,115.0455c-14.876,0-34.0635-13.1592-48.8819-33.5245C30.2786,68.4507,23.9964,54.4175,22.1,42.0064c-1.9151-12.5273.8223-22.1855,7.709-27.1953a18.9767,18.9767,0,0,1,11.4267-3.4756c5.27,0,11.1367,1.6514,17.4375,4.9092,11.1006,5.7412,22.3,15.8926,31.5371,28.5869,19.7325,27.1211,24.1172,56.4238,9.9825,66.7109a19.1259,19.1259,0,0,1-11.5166,3.503ZM41.2591,16.15a14.3179,14.3179,0,0,0-8.6153,2.5585c-11.7509,8.5508-6.7968,35.4561,11.044,59.9756,13.7383,18.8809,31.791,31.5684,44.9238,31.5694h.002a14.5235,14.5235,0,0,0,8.7431-2.6094c11.75-8.5508,6.7959-35.4551-11.0439-59.9756C77.5052,35.566,66.9036,25.9273,56.4593,20.5279,50.8411,17.6226,45.7268,16.15,41.2591,16.15Z" fill="url(#linear-gradient-12)"/>
          <path d="M41.2351,11.8353c5.1238,0,10.96,1.6232,17.2088,4.8537,11.0315,5.705,22.1692,15.803,31.362,28.437,19.5689,26.8947,24.0015,55.89,10.0928,66.0118a18.6815,18.6815,0,0,1-11.2226,3.4079h-.0044c-14.3106,0-33.3743-12.5619-48.4781-33.3187C20.6253,54.3322,16.1927,25.3355,30.1026,15.2151a18.5285,18.5285,0,0,1,11.1325-3.38m47.376,98.9187a15.0337,15.0337,0,0,0,9.04-2.7056c11.9731-8.7125,7.0688-35.9306-10.9341-60.6737C77.867,35.2121,67.2024,25.52,56.689,20.0832c-5.7019-2.9477-10.9419-4.4328-15.43-4.4328a14.8158,14.8158,0,0,0-8.909,2.6542C20.376,27.017,25.2806,54.2352,43.2832,78.9783,57.4954,98.5112,75.6878,110.754,88.6111,110.754M31.2264,16.76h0m10.0092-5.9246h0a19.47,19.47,0,0,0-11.7214,3.5712c-7.0447,5.1256-9.8535,14.9542-7.9089,27.6753C23.5142,54.57,29.8286,68.681,39.385,81.8153c14.91,20.49,34.2561,33.73,49.2867,33.73a19.622,19.622,0,0,0,11.8154-3.5993c14.3623-10.4517,10.0259-40.0612-9.8726-67.4088C81.3333,31.782,70.0711,21.5763,58.9034,15.8007,52.53,12.5059,46.586,10.8353,41.2356,10.8353ZM88.6111,109.754c-12.9787,0-30.87-12.6043-44.5193-31.3641C35.472,66.5426,29.6006,53.78,27.56,42.4526c-1.9956-11.0748-.0854-19.3636,5.3789-23.3394A13.8208,13.8208,0,0,1,41.2591,16.65c4.3874,0,9.4243,1.4538,14.9707,4.3211C66.6082,26.3381,77.1482,35.9239,85.908,47.9631c8.62,11.8471,14.4912,24.61,16.5327,35.9373,1.9956,11.0748.0855,19.3635-5.3784,23.3394a14.0368,14.0368,0,0,1-8.4512,2.5142Z" fill="#141f36"/>
        </g>
        <path d="M58.12,100.5912A109.8814,109.8814,0,0,1,40.9245,81.777C21.356,54.8822,16.9233,25.8855,30.8334,15.7651h0c6.8294-4.9687,16.895-4.4439,28.3412,1.4739" fill="none" stroke="#fff" stroke-linecap="round" stroke-linejoin="round" stroke-width="0.5"/>
        <g>
          <g>
            <g>
              <path d="M101.57,28.4507a8.284,8.284,0,1,1,8.1358-8.2822A8.22,8.22,0,0,1,101.57,28.4507Z" fill="url(#linear-gradient-13)"/>
              <path d="M101.5691,12.3852a7.7843,7.7843,0,1,1-7.6357,7.7829,7.7107,7.7107,0,0,1,7.6357-7.7829m0-1a8.784,8.784,0,1,0,8.6363,8.7827,8.72,8.72,0,0,0-8.6363-8.7827Z" fill="#141f36"/>
            </g>
            <path d="M102.64,28.1963A7.6966,7.6966,0,1,0,95.975,14.3638" fill="none" stroke="#141f36" stroke-linecap="round" stroke-linejoin="round" stroke-width="0.7142"/>
          </g>
          <path d="M96.55,15.8524a6.8857,6.8857,0,0,0-1.5181,4.3307,6.77,6.77,0,0,0,6.7042,6.8332" fill="none" stroke="#fff" stroke-linecap="round" stroke-linejoin="round" stroke-width="0.5"/>
        </g>
        <g>
          <g>
            <g>
              <path d="M65.4329,70.1539A8.2841,8.2841,0,1,1,73.57,61.8716,8.2194,8.2194,0,0,1,65.4329,70.1539Z" fill="url(#linear-gradient-14)"/>
              <path d="M65.4331,54.0884a7.7843,7.7843,0,1,1-7.6359,7.7829,7.71,7.71,0,0,1,7.6359-7.7829m0-1a8.7839,8.7839,0,1,0,8.6358,8.7827,8.72,8.72,0,0,0-8.6358-8.7827Z" fill="#141f36"/>
            </g>
            <path d="M66.5036,69.9A7.6966,7.6966,0,1,0,59.8391,56.067" fill="none" stroke="#141f36" stroke-linecap="round" stroke-linejoin="round" stroke-width="0.7142"/>
          </g>
          <path d="M60.414,57.5556a6.8857,6.8857,0,0,0-1.5181,4.3307A6.77,6.77,0,0,0,65.6,68.72" fill="none" stroke="#fff" stroke-linecap="round" stroke-linejoin="round" stroke-width="0.5"/>
        </g>
        <g>
          <g>
            <g>
              <path d="M46.0315,118.4742a6.543,6.543,0,1,1,6.4278-6.542A6.4933,6.4933,0,0,1,46.0315,118.4742Z" fill="url(#linear-gradient-15)"/>
              <path d="M46.0313,105.89a6.0431,6.0431,0,1,1-5.928,6.0421,5.9859,5.9859,0,0,1,5.928-6.0421m0-1a7.0428,7.0428,0,1,0,6.9277,7.0419,6.9933,6.9933,0,0,0-6.9277-7.0419Z" fill="#141f36"/>
            </g>
            <path d="M46.8622,118.1648a5.975,5.975,0,1,0-5.1738-10.7385" fill="none" stroke="#141f36" stroke-linecap="round" stroke-linejoin="round" stroke-width="0.7142"/>
          </g>
          <path d="M42.1348,108.582a5.3452,5.3452,0,0,0-1.1786,3.362,5.2554,5.2554,0,0,0,5.2047,5.3047" fill="none" stroke="#fff" stroke-linecap="round" stroke-linejoin="round" stroke-width="0.5"/>
        </g>
        <g>
          <g>
            <g>
              <ellipse cx="14.4104" cy="49.691" rx="5.4033" ry="5.498" fill="url(#linear-gradient-16)"/>
              <path d="M14.41,44.6934A4.9986,4.9986,0,1,1,9.5069,49.691,4.9511,4.9511,0,0,1,14.41,44.6934m0-1a5.9983,5.9983,0,1,0,5.9031,5.9975A5.9575,5.9575,0,0,0,14.41,43.6935Z" fill="#141f36"/>
            </g>
            <path d="M15.0974,54.8462a4.9422,4.9422,0,1,0-4.28-8.8823" fill="none" stroke="#141f36" stroke-linecap="round" stroke-linejoin="round" stroke-width="0.7142"/>
          </g>
          <path d="M11.1872,46.92a4.4212,4.4212,0,0,0-.9749,2.7809,4.347,4.347,0,0,0,4.305,4.3878" fill="none" stroke="#fff" stroke-linecap="round" stroke-linejoin="round" stroke-width="0.5"/>
        </g>
      </g>
      <rect width="130" height="130" fill="none"/>
    </g>
  </g>
</svg>
