<svg xmlns="http://www.w3.org/2000/svg" xmlns:xlink="http://www.w3.org/1999/xlink" width="130" height="130" viewBox="0 0 130 130">
  <defs>
    <linearGradient id="linear-gradient" x1="17.0965" y1="112.7567" x2="112.2291" y2="17.6242" gradientUnits="userSpaceOnUse">
      <stop offset="0" stop-color="#364254"/>
      <stop offset="1" stop-color="#577290"/>
    </linearGradient>
    <linearGradient id="linear-gradient-2" x1="28.6022" y1="101.2508" x2="100.7227" y2="29.1302" gradientUnits="userSpaceOnUse">
      <stop offset="0" stop-color="#141f36"/>
      <stop offset="0.4509" stop-color="#162239"/>
      <stop offset="0.7219" stop-color="#1d2a41"/>
      <stop offset="0.9448" stop-color="#29384f"/>
      <stop offset="1" stop-color="#2d3d54"/>
    </linearGradient>
    <linearGradient id="linear-gradient-3" x1="16.2193" y1="81.1823" x2="80.6617" y2="16.7399" gradientUnits="userSpaceOnUse">
      <stop offset="0" stop-color="#141f36"/>
      <stop offset="1" stop-color="#3f5679"/>
    </linearGradient>
    <linearGradient id="linear-gradient-4" x1="19.8862" y1="65.0501" x2="64.4977" y2="20.4386" xlink:href="#linear-gradient-3"/>
    <linearGradient id="linear-gradient-5" x1="54.8763" y1="97.4576" x2="54.8763" y2="60.1265" gradientUnits="userSpaceOnUse">
      <stop offset="0" stop-color="#3f5679"/>
      <stop offset="1" stop-color="#577290"/>
    </linearGradient>
    <linearGradient id="linear-gradient-6" x1="85.0965" y1="98.0181" x2="85.0965" y2="59.4253" xlink:href="#linear-gradient-5"/>
  </defs>
  <g id="Camada_2" data-name="Camada 2">
    <g id="Layer">
      <g>
        <path d="M24.8253,115.48l33.69,8.3588a26.3677,26.3677,0,0,0,12.7641-.0165l34.1366-8.5632Z" fill="#141f36"/>
        <path d="M105.6873,14.52l-33.69-8.3587a26.3677,26.3677,0,0,0-12.7641.0164L25.097,14.741Z" fill="#141f36"/>
        <path d="M7.2756,48.8255,7.2548,82.9781c-.0029,4.79,3.1241,8.6755,6.9839,8.6779s6.9915-3.8794,6.9944-8.6695l.0209-34.1526c.0029-4.79-3.1242-8.6755-6.9839-8.6779S7.2785,44.0355,7.2756,48.8255Z" fill="#141f36"/>
        <path d="M15.71,41.3487c-3.681-.0022-6.6678,3.7-6.6706,8.268l-.02,32.5711c-.0028,4.5681,2.9794,8.2738,6.6605,8.276" fill="none" stroke="#fff" stroke-linecap="round" stroke-linejoin="round" stroke-width="0.5"/>
        <path d="M108.7668,48.8255l-.0208,34.1526c-.0029,4.79,3.1241,8.6755,6.9839,8.6779s6.9915-3.8794,6.9944-8.6695l.0208-34.1526c.003-4.79-3.1241-8.6755-6.9838-8.6779S108.77,44.0355,108.7668,48.8255Z" fill="#141f36"/>
        <rect x="14.2718" y="14.9025" width="100.7821" height="100.5759" rx="9.4683" stroke="#141f36" stroke-linecap="round" stroke-linejoin="round" fill="url(#linear-gradient)"/>
        <path d="M27.585,16.4835a11.717,11.717,0,0,0-11.7289,11.705v74.0038a11.717,11.717,0,0,0,11.7289,11.705" fill="none" stroke="#fff" stroke-linecap="round" stroke-linejoin="round" stroke-width="0.5"/>
        <g>
          <path d="M34.3846,26.7544H94.9412a8.2354,8.2354,0,0,1,8.2354,8.2354V95.3912a8.2354,8.2354,0,0,1-8.2354,8.2354H34.3836a8.2354,8.2354,0,0,1-8.2354-8.2354v-60.4A8.2363,8.2363,0,0,1,34.3846,26.7544Z" fill="url(#linear-gradient-2)"/>
          <path d="M94.9417,27.254A7.7355,7.7355,0,0,1,102.677,34.99V95.3914a7.7354,7.7354,0,0,1-7.7353,7.7354H34.3841a7.7355,7.7355,0,0,1-7.7354-7.7354V34.99a7.7355,7.7355,0,0,1,7.7354-7.7355H94.9417m0-1H34.3841A8.7452,8.7452,0,0,0,25.6487,34.99V95.3914a8.7452,8.7452,0,0,0,8.7354,8.7354H94.9417a8.7451,8.7451,0,0,0,8.7353-8.7354V34.99a8.7451,8.7451,0,0,0-8.7353-8.7355Z" fill="#141f36"/>
        </g>
        <path d="M96.6581,32.7363,32.156,97.1189a9.4968,9.4968,0,0,1-2.552-6.5025V39.7582A9.5644,9.5644,0,0,1,39.18,30.2023H90.1422A9.61,9.61,0,0,1,96.6581,32.7363Z" opacity="0.5" fill="url(#linear-gradient-3)"/>
        <path d="M74.2614,30.2023,29.604,74.7679v-35.01A9.5644,9.5644,0,0,1,39.18,30.2023Z" opacity="0.5" fill="url(#linear-gradient-4)"/>
        <g>
          <g>
            <ellipse cx="82.8422" cy="109.1467" rx="2.7866" ry="2.7809" fill="none" stroke="#141f36" stroke-linecap="round" stroke-linejoin="round" stroke-width="0.5"/>
            <ellipse cx="46.4834" cy="109.0288" rx="2.7866" ry="2.7809" fill="none" stroke="#141f36" stroke-linecap="round" stroke-linejoin="round" stroke-width="0.5"/>
            <line x1="80.0604" y1="109.0969" x2="49.3287" y2="109.0969" fill="none" stroke="#141f36" stroke-linecap="round" stroke-linejoin="round" stroke-width="0.5"/>
          </g>
          <g>
            <ellipse cx="82.8422" cy="21.0392" rx="2.7866" ry="2.7809" fill="none" stroke="#141f36" stroke-linecap="round" stroke-linejoin="round" stroke-width="0.5"/>
            <ellipse cx="46.4834" cy="20.9213" rx="2.7866" ry="2.7809" fill="none" stroke="#141f36" stroke-linecap="round" stroke-linejoin="round" stroke-width="0.5"/>
            <line x1="80.0604" y1="20.9894" x2="49.3287" y2="20.9894" fill="none" stroke="#141f36" stroke-linecap="round" stroke-linejoin="round" stroke-width="0.5"/>
          </g>
        </g>
        <rect x="34.0937" y="34.6839" width="61.1382" height="61.0131" rx="7.7355" fill="none" stroke="#141f36" stroke-linecap="round" stroke-linejoin="round" stroke-width="0.7142"/>
        <line x1="14.532" y1="63.4905" x2="25.5943" y2="63.4905" fill="none" stroke="#141f36" stroke-linecap="round" stroke-linejoin="round" stroke-width="0.5"/>
        <line x1="14.532" y1="66.2504" x2="25.5943" y2="66.2504" fill="none" stroke="#141f36" stroke-linecap="round" stroke-linejoin="round" stroke-width="0.5"/>
        <line x1="103.7224" y1="63.4905" x2="114.7848" y2="63.4905" fill="none" stroke="#141f36" stroke-linecap="round" stroke-linejoin="round" stroke-width="0.5"/>
        <line x1="103.7224" y1="66.2504" x2="114.7848" y2="66.2504" fill="none" stroke="#141f36" stroke-linecap="round" stroke-linejoin="round" stroke-width="0.5"/>
        <g>
          <g>
            <g>
              <path d="M50.7293,97.4576a.5.5,0,0,1-.5-.5V67.79H40.3279a.5.5,0,0,1-.5-.5V60.6265a.5.5,0,0,1,.5-.5H69.4246a.5.5,0,0,1,.5.5V67.29a.5.5,0,0,1-.5.5H59.4529v29.168a.5.5,0,0,1-.5.5Z" fill="url(#linear-gradient-5)"/>
              <path d="M69.4246,60.6265v6.6628H58.9529v29.668H50.7293V67.2893H40.3279V60.6265H69.4246m0-1H40.3279a1,1,0,0,0-1,1v6.6628a1,1,0,0,0,1,1h9.4014V96.9573a1,1,0,0,0,1,1h8.2236a1,1,0,0,0,1-1V68.2891h9.4717a1,1,0,0,0,1-1V60.6265a1,1,0,0,0-1-1Z" fill="#141f36"/>
            </g>
            <g>
              <path d="M83.1287,98.0181c-6.87,0-10.4971-2.0137-10.6484-2.1a.5.5,0,0,1-.253-.4346V87.4185a.5.5,0,0,1,.8535-.3535c2.0186,2.0146,6.167,3.4775,9.8614,3.4775,1.6172,0,5.3789-.3183,5.3789-3.2646,0-2.1631-2.7227-3.3848-5.874-4.7988-4.6788-2.1-10.501-4.7129-10.501-11.8233,0-9.7715,9.5156-11.23,15.1885-11.23,5.8828,0,8.749,1.3956,8.8671,1.4551a.5.5,0,0,1,.2774.4473v7.5752a.5.5,0,0,1-.7637.4248,14.62,14.62,0,0,0-8.17-2.52c-1.709,0-5.6846.32-5.6846,3.2881,0,2.1631,3.7588,3.75,7.0742,5.1494l.6416.2676c3.7432,1.5507,8.87,3.6748,8.87,11.415C98.2469,95.1138,90.1023,98.0181,83.1287,98.0181Z" fill="url(#linear-gradient-6)"/>
              <path d="M87.1346,59.925c5.8335,0,8.6445,1.4028,8.6445,1.4028v7.5747a15.2043,15.2043,0,0,0-8.4336-2.5951c-3.7949,0-6.1846,1.3327-6.1846,3.7874s3.7246,4.068,7.3794,5.6109,9.2066,3.3666,9.2066,11.2219S89.9461,97.5182,83.1287,97.5182s-10.4014-2.034-10.4014-2.034V87.4186c2.2276,2.223,6.5928,3.6239,10.2158,3.6239,3.2349,0,5.8785-1.1173,5.8785-3.7642,0-5.9616-16.3755-4.98-16.3755-16.6224,0-9.1879,8.8554-10.7309,14.6885-10.7309m0-1c-10.1167,0-15.6885,4.166-15.6885,11.7307,0,7.4336,5.9863,10.12,10.7959,12.2788,2.9941,1.3437,5.58,2.5042,5.58,4.3436,0,2.495-3.4117,2.7644-4.8785,2.7644-3.5756,0-7.5751-1.4012-9.51-3.3318a1,1,0,0,0-1.7061.7077v8.0656a1,1,0,0,0,.5064.87c.1557.0884,3.8945,2.1643,10.895,2.1643,7.2046,0,15.6182-3.0355,15.6182-11.5905,0-8.0741-5.5245-10.3626-9.18-11.877l-.6382-.2659c-3.0151-1.2732-6.7681-2.8576-6.7681-4.69,0-2.5159,3.6255-2.7876,5.1846-2.7876a14.1591,14.1591,0,0,1,7.9072,2.4453,1,1,0,0,0,1.5264-.85V61.3278a1,1,0,0,0-.5537-.8947c-.1231-.0616-3.0908-1.5079-9.0908-1.5079Z" fill="#141f36"/>
            </g>
          </g>
          <line x1="41.2387" y1="61.4753" x2="41.2387" y2="66.2084" fill="none" stroke="#fff" stroke-linecap="round" stroke-linejoin="round" stroke-width="0.5"/>
          <line x1="51.6465" y1="67.7861" x2="51.6465" y2="96.053" fill="none" stroke="#fff" stroke-linecap="round" stroke-linejoin="round" stroke-width="0.5"/>
          <path d="M86.3282,60.8038c-7.2459,0-12.944,3.301-12.944,9.7432,0,11.2666,16.6,9.3453,16.6,16.6973,0,6.5926-10.6733,5.9729-16.3868,2.3178v5.39" fill="none" stroke="#fff" stroke-linecap="round" stroke-linejoin="round" stroke-width="0.5"/>
        </g>
        <rect x="39.2321" y="73.1666" width="7.7755" height="4.005" fill="none" stroke="#141f36" stroke-linecap="round" stroke-linejoin="round" stroke-width="0.7142"/>
        <rect x="39.2321" y="80.9262" width="7.7755" height="4.005" fill="none" stroke="#141f36" stroke-linecap="round" stroke-linejoin="round" stroke-width="0.7142"/>
        <rect x="83.1261" y="42.8791" width="7.7755" height="4.005" fill="none" stroke="#141f36" stroke-linecap="round" stroke-linejoin="round" stroke-width="0.7142"/>
        <rect x="83.1261" y="50.6387" width="7.7755" height="4.005" fill="none" stroke="#141f36" stroke-linecap="round" stroke-linejoin="round" stroke-width="0.7142"/>
      </g>
      <rect width="130" height="130" fill="none"/>
    </g>
  </g>
</svg>
